<?xml version="1.0" encoding="iso-8859-1"?>
<!-- Generator: Adobe Illustrator 19.0.0, SVG Export Plug-In . SVG Version: 6.00 Build 0)  -->
<svg version="1.1" id="Capa_1" xmlns="http://www.w3.org/2000/svg" xmlns:xlink="http://www.w3.org/1999/xlink" x="0px" y="0px"
	 viewBox="0 0 512 512" style="enable-background:new 0 0 512 512;" xml:space="preserve">
<path style="fill:#F8F8F8;" d="M254.6,497.9c-134.2,0-243-108.8-243-243s108.8-243,243-243s243,108.8,243,243l0,0
	C497.4,389,388.7,497.7,254.6,497.9z"/>
<g>
	<circle style="fill:#EEEEEE;" cx="254.6" cy="254.9" r="183.7"/>
	<path style="fill:#EEEEEE;" d="M2.6,16.1H0v-4h2.6c4.4,0,7.9-3.5,7.9-7.9V1.7h3.9v2.6C14.4,10.8,9.1,16.1,2.6,16.1z"/>
	<path style="fill:#EEEEEE;" d="M24.8,16.1h-2.5c-6.5,0-11.8-5.3-11.8-11.8V1.7h3.9v2.6c0,4.3,3.5,7.9,7.9,7.9h2.6v3.9H24.8z"/>
	<path style="fill:#EEEEEE;" d="M14.4,26.5h-3.9V24c0-4.3-3.5-7.9-7.9-7.9l0,0H0v-4h2.6c6.5,0,11.8,5.3,11.8,11.8V26.5z"/>
	<path style="fill:#EEEEEE;" d="M14.4,26.5h-3.9V24c0-6.5,5.3-11.8,11.8-11.8h2.5v4h-2.5c-4.3,0-7.9,3.5-7.9,7.9V26.5z"/>
</g>
<g>
	<path style="fill:#75B0F4;" d="M510,499.8h-2.6c-6.5,0-11.8-5.3-11.8-11.8v-2.6h4v2.6c0,4.3,3.5,7.9,7.9,7.9h2.6v3.9H510z"/>
	<path style="fill:#75B0F4;" d="M499.6,510.3h-4v-2.6c0-6.5,5.3-11.8,11.8-11.8h2.6v4h-2.6c-4.4,0-7.9,3.5-7.9,7.9L499.6,510.3z"/>
	<path style="fill:#75B0F4;" d="M487.7,499.8h-2.6v-4h2.6c4.3,0,7.9-3.5,7.9-7.9v-2.6h4v2.6C499.6,494.5,494.3,499.8,487.7,499.8z"
		/>
	<path style="fill:#75B0F4;" d="M499.6,510.3h-4v-2.6c0-4.3-3.5-7.9-7.9-7.9h-2.6v-4h2.6c6.5,0,11.8,5.3,11.8,11.8L499.6,510.3
		L499.6,510.3z"/>
	<path style="fill:#75B0F4;" d="M100.8,441h-2.6v-4h2.6c4.4,0,7.9-3.5,7.9-7.9v-2.6h4v2.6C112.7,435.7,107.4,441,100.8,441z"/>
	<path style="fill:#75B0F4;" d="M123.1,441h-2.6c-6.5,0-11.8-5.3-11.8-11.8v-2.6h4v2.6c0,4.3,3.5,7.9,7.9,7.9h2.6v3.9H123.1z"/>
	<path style="fill:#75B0F4;" d="M112.7,451.4h-4v-2.6c0-4.4-3.5-7.9-7.9-7.9h-2.6v-4h2.6c6.5,0,11.8,5.3,11.8,11.8
		C112.7,448.9,112.7,451.4,112.7,451.4z"/>
	<path style="fill:#75B0F4;" d="M112.7,451.4h-4v-2.6c0-6.5,5.3-11.8,11.8-11.8h2.6v4h-2.6c-4.3,0-7.9,3.5-7.9,7.9v2.5H112.7z"/>
</g>
<g>
	<path style="fill:#FFC335;" d="M429,375.6h-2.6v-4h2.6c4.4,0,7.9-3.5,7.9-7.9v-2.6h4v2.6C440.9,370.3,435.6,375.6,429,375.6z"/>
	<path style="fill:#FFC335;" d="M451.3,375.6h-2.6c-6.5,0-11.8-5.3-11.8-11.8v-2.6h4v2.6c0,4.3,3.5,7.9,7.9,7.9h2.6L451.3,375.6z"/>
	<path style="fill:#FFC335;" d="M440.9,386h-4v-2.6c0-4.3-3.5-7.9-7.9-7.9h-2.6v-4h2.6c6.5,0,11.8,5.3,11.8,11.8v2.7H440.9z"/>
	<path style="fill:#FFC335;" d="M440.9,386h-4v-2.6c0-6.5,5.3-11.8,11.8-11.8h2.6v4h-2.6c-4.3,0-7.9,3.5-7.9,7.9v2.5H440.9z"/>
	<path style="fill:#FFC335;" d="M414.4,207.1c-4.9,0-8.8-4-8.8-8.8c0-4.9,4-8.8,8.8-8.8c4.9,0,8.8,4,8.8,8.8
		C423.2,203.1,419.2,207.1,414.4,207.1z M414.4,193.3c-2.7,0-4.9,2.2-4.9,4.9s2.2,4.9,4.9,4.9c2.7,0,4.9-2.2,4.9-4.9l0,0
		C419.2,195.5,417.1,193.3,414.4,193.3L414.4,193.3z"/>
</g>
<path style="fill:#75B0F4;" d="M272.9,423.2c-6.9,0-12.5-5.6-12.5-12.5s5.6-12.5,12.5-12.5s12.5,5.6,12.5,12.5l0,0
	C285.4,417.6,279.8,423.1,272.9,423.2z M272.9,402.1c-4.7,0-8.5,3.8-8.5,8.5s3.8,8.5,8.5,8.5s8.5-3.8,8.5-8.5l0,0
	C281.4,405.9,277.6,402.1,272.9,402.1z"/>
<g>
	<path style="fill:#FFC335;" d="M91.6,311c-4.9,0-8.9-4-8.9-8.8c0-4.9,4-8.9,8.8-8.9c4.9,0,8.9,4,8.9,8.8l0,0
		C100.4,307,96.5,310.9,91.6,311z M91.6,297.2c-2.7,0-4.9,2.2-4.9,4.9c0,2.7,2.2,4.9,4.9,4.9c2.7,0,4.9-2.2,4.9-4.9
		C96.5,299.4,94.3,297.2,91.6,297.2z"/>
	<path style="fill:#FFC335;" d="M247.7,40.3c-4.9,0-8.8-4-8.8-8.8s4-8.8,8.8-8.8c4.9,0,8.8,4,8.8,8.8
		C256.6,36.3,252.6,40.3,247.7,40.3z M247.7,26.5c-2.7,0-4.9,2.2-4.9,4.9s2.2,4.9,4.9,4.9s4.9-2.2,4.9-4.9l0,0
		C252.6,28.7,250.4,26.5,247.7,26.5L247.7,26.5z"/>
	<path style="fill:#FFC335;" d="M68.4,209.5c-2.5,0-5-1.1-6.6-3.1c-1.7-1.9-4.7-2.1-6.6-0.4c-0.1,0.1-0.3,0.3-0.4,0.4
		c-3.1,3.6-8.6,4-12.3,0.9c-0.3-0.3-0.6-0.6-0.9-0.9c-1.7-1.9-4.7-2.1-6.6-0.4c-0.1,0.1-0.3,0.3-0.4,0.4c-3.1,3.6-8.6,4-12.3,0.9
		c-0.3-0.3-0.6-0.6-0.9-0.9l3.1-2.5c1.7,1.9,4.7,2.1,6.6,0.4c0.1-0.1,0.3-0.3,0.4-0.4c3.1-3.6,8.6-4,12.3-0.9
		c0.3,0.3,0.6,0.6,0.9,0.9c1.7,1.9,4.7,2.1,6.6,0.3c0.1-0.1,0.2-0.2,0.3-0.3c3.2-3.6,8.7-4,12.3-0.8c0.3,0.3,0.6,0.5,0.8,0.8
		c1.7,1.9,4.7,2.1,6.6,0.4c0.1-0.1,0.3-0.3,0.4-0.4l3.1,2.5C73.4,208.3,71,209.5,68.4,209.5z"/>
</g>
<path style="fill:#75B0F4;" d="M505.5,42.7c-2.6,0-5-1.1-6.6-3.1c-1.7-1.9-4.6-2.1-6.6-0.4c-0.2,0.1-0.3,0.3-0.4,0.4
	c-3.2,3.6-8.7,4-12.4,0.8c-0.3-0.2-0.5-0.5-0.8-0.8c-1.7-1.9-4.7-2.1-6.6-0.4c-0.1,0.1-0.3,0.3-0.4,0.4c-3.2,3.6-8.7,4-12.4,0.8
	c-0.3-0.2-0.5-0.5-0.8-0.8l3.1-2.5c1.7,1.9,4.6,2.1,6.6,0.4c0.2-0.1,0.3-0.3,0.4-0.4c3.2-3.6,8.7-4,12.4-0.8
	c0.3,0.2,0.5,0.5,0.8,0.8c1.7,1.9,4.6,2.1,6.6,0.4c0.2-0.1,0.3-0.3,0.4-0.4c3.2-3.6,8.7-4,12.3-0.8c0.3,0.3,0.6,0.5,0.8,0.8
	c1.7,1.9,4.6,2.1,6.6,0.4c0.2-0.1,0.3-0.3,0.4-0.4l3.1,2.5C510.4,41.5,508,42.7,505.5,42.7z"/>
<path style="fill:#FFC335;" d="M331.9,455.8c-2.5,0-5-1.1-6.6-3.1c-1.7-1.9-4.7-2.1-6.6-0.4c-0.1,0.1-0.3,0.3-0.4,0.4
	c-3.2,3.6-8.7,4-12.4,0.8c-0.3-0.2-0.5-0.5-0.8-0.8c-1.7-1.9-4.7-2.1-6.6-0.4c-0.1,0.1-0.3,0.3-0.4,0.4c-3.2,3.6-8.7,4-12.4,0.8
	c-0.3-0.2-0.5-0.5-0.8-0.8l3.1-2.5c1.7,1.9,4.6,2.1,6.6,0.4c0.2-0.1,0.3-0.3,0.4-0.4c3.2-3.6,8.7-4,12.4-0.8
	c0.3,0.2,0.5,0.5,0.8,0.8c1.7,1.9,4.6,2.1,6.6,0.4c0.2-0.1,0.3-0.3,0.4-0.4c3.2-3.6,8.7-4,12.4-0.8c0.3,0.2,0.5,0.5,0.8,0.8
	c1.7,1.9,4.6,2.1,6.6,0.4c0.2-0.1,0.3-0.3,0.4-0.4l3.1,2.5C336.9,454.6,334.5,455.8,331.9,455.8z"/>
<g>
	<path style="fill:#75B0F4;" d="M127.6,157.4L127.6,157.4c-1.6,0-3.3-0.3-4.8-0.9l1.5-3.7c1,0.4,2.2,0.6,3.3,0.6V157.4z
		 M132.4,156.5l-1.5-3.7c1.1-0.4,2-1.1,2.8-1.9l2.8,2.8C135.3,154.9,134,155.8,132.4,156.5z M118.7,153.8c-1.2-1.2-2.1-2.6-2.8-4.1
		l3.7-1.5c0.4,1.1,1.1,2,1.9,2.8L118.7,153.8z M139.3,149.6l-3.7-1.5c0.4-1.1,0.7-2.2,0.7-3.3l4-0.1v0.1
		C140.2,146.5,139.9,148.1,139.3,149.6z M114.9,144.9L114.9,144.9c0-1.7,0.3-3.3,0.9-4.8l3.7,1.5c-0.4,1-0.6,2.1-0.6,3.3H114.9z
		 M135.5,141.4c-0.5-1.1-1.1-2-1.9-2.8l2.8-2.8c1.2,1.2,2.1,2.5,2.8,4.1L135.5,141.4z M121.4,138.7l-2.8-2.8
		c1.2-1.2,2.5-2.1,4.1-2.8l1.5,3.6C123.1,137.2,122.2,137.9,121.4,138.7L121.4,138.7z M130.8,136.7c-1-0.4-2.1-0.6-3.2-0.6l-0.1-4
		h0.1c1.6,0,3.2,0.3,4.7,0.9L130.8,136.7z"/>
	<path style="fill:#75B0F4;" d="M425.1,457.8L425.1,457.8v-1.9l0.4,1.9H425.1z M425.1,457.8c-1.7,0-3.3-0.3-4.8-0.9l1.5-3.7
		c1,0.4,2.2,0.6,3.3,0.6V457.8z M429.9,456.9l-1.5-3.7c1.1-0.4,2-1.1,2.8-1.9l2.8,2.8C432.8,455.3,431.4,456.2,429.9,456.9
		L429.9,456.9L429.9,456.9z M416.1,454.2c-1.2-1.2-2.1-2.6-2.8-4.1l3.7-1.5c0.4,1.1,1.1,2,1.9,2.8L416.1,454.2z M436.7,450l-3.7-1.5
		c0.4-1.1,0.7-2.2,0.7-3.3l3.2-0.1h0.8C437.7,446.8,437.3,448.5,436.7,450L436.7,450z M412.7,445.3h-0.3c0-1.7,0.3-3.3,0.9-4.8
		l3.7,1.5c-0.4,1-0.6,2.1-0.6,3.3H412.7z M433,441.8c-0.4-1.1-1.1-2-1.9-2.8l2.8-2.8c1.2,1.2,2.1,2.5,2.8,4.1L433,441.8z
		 M418.9,439.1l-2.8-2.8c1.2-1.2,2.5-2.1,4.1-2.8l1.5,3.6C420.6,437.6,419.6,438.3,418.9,439.1L418.9,439.1z M428.3,437.1
		c-1-0.4-2.1-0.6-3.3-0.6l-0.1-3.4v-0.5l0,0c1.6,0,3.3,0.3,4.8,0.9L428.3,437.1z"/>
	<path style="fill:#75B0F4;" d="M425,105.9L425,105.9c-1.6,0-3.3-0.3-4.8-0.9l1.5-3.7c1,0.4,2.2,0.6,3.3,0.6V105.9z M429.9,104.9
		l-1.5-3.7c1.1-0.4,2-1.1,2.8-1.9l2.8,2.8C432.8,103.3,431.4,104.3,429.9,104.9z M416.1,102.2c-1.2-1.2-2.1-2.6-2.8-4.1l3.7-1.5
		c0.4,1.1,1.1,2,1.9,2.8L416.1,102.2z M436.7,98.1l-3.7-1.5c0.4-1.1,0.7-2.2,0.7-3.3l4-0.1v0.1C437.7,94.9,437.3,96.5,436.7,98.1z
		 M412.7,93.3h-0.3c0-1.7,0.3-3.3,0.9-4.8L417,90c-0.4,1-0.6,2.2-0.6,3.3H412.7z M433,89.8c-0.5-1.1-1.1-2-1.9-2.8l2.8-2.8
		c1.2,1.2,2.1,2.5,2.8,4.1L433,89.8z M418.8,87.1l-2.8-2.8c1.2-1.2,2.5-2.1,4.1-2.8l1.5,3.6C420.6,85.7,419.6,86.3,418.8,87.1
		L418.8,87.1z M428.3,85.2c-1-0.4-2.1-0.6-3.3-0.6l-0.1-4h0.1c1.6,0,3.2,0.3,4.7,0.9L428.3,85.2z"/>
</g>
<path style="fill:#FFC335;" d="M29.3,488.4L29.3,488.4c-1.6,0-3.3-0.3-4.8-0.9l1.5-3.7c1,0.4,2.2,0.6,3.3,0.6V488.4z M34.2,487.5
	l-1.5-3.7c1.1-0.4,2-1.1,2.8-1.9l2.8,2.8C37.1,485.9,35.7,486.8,34.2,487.5z M20.4,484.8c-1.2-1.2-2.1-2.5-2.8-4.1l3.7-1.5
	c0.4,1.1,1.1,2,1.9,2.8L20.4,484.8z M41,480.6l-3.7-1.5c0.4-1.1,0.7-2.2,0.7-3.3l4-0.1v0.1C41.9,477.4,41.6,479.1,41,480.6z
	 M16.6,475.8L16.6,475.8c0-1.7,0.3-3.3,0.9-4.8l3.7,1.5c-0.4,1-0.6,2.1-0.6,3.3H16.6z M37.3,472.4c-0.4-1.1-1.1-2-1.9-2.8l2.8-2.8
	c1.2,1.2,2.1,2.5,2.8,4.1L37.3,472.4z M23.1,469.7l-2.8-2.8c1.2-1.2,2.5-2.1,4.1-2.8l1.6,3.6C24.8,468.2,23.9,468.9,23.1,469.7
	L23.1,469.7z M32.5,467.7c-1-0.4-2.1-0.6-3.3-0.6l-0.1-4h0.1c1.6,0,3.2,0.3,4.7,0.9L32.5,467.7z"/>
<g>
	<rect x="38" y="51.2" style="fill:#75B0F4;" width="4" height="18.7"/>
	<rect x="30.6" y="58.6" style="fill:#75B0F4;" width="18.7" height="4"/>
</g>
<path style="fill:#DDDDDD;" d="M388.3,302.8L374,197h-24.3v-16.2c0-9.4-7.6-17-17-17h-11c-9.4,0-17,7.6-17,17V197h-24l-5.9,43.4
	v-2.3c0-9.4-7.6-17-17-17h-11c-6.2,0-11.9,3.4-14.9,8.9l-3.1-22.8h-24.3V191c0-9.4-7.6-17-17-17h-11c-9.4,0-17,7.6-17,17v16.2h-24
	L120.9,313h76.8l-6.4,47.1h122.1l-7.8-57.3L388.3,302.8L388.3,302.8z M307,180.8c0-8,6.5-14.6,14.6-14.6h11c8,0,14.6,6.5,14.6,14.6
	V197H307V180.8z M246.6,223.6h11c8,0,14.6,6.5,14.6,14.6v16.2H235l-2.6-19.3C233.9,228.3,239.8,223.6,246.6,223.6z M161.6,191.1
	c0-8.1,6.5-14.6,14.6-14.6h11c8,0,14.6,6.5,14.6,14.6v16.2h-40.2L161.6,191.1L161.6,191.1z"/>
<g>
	<polygon style="fill:#02C88B;" points="127.6,313 216.7,313 231,207.2 141.9,207.2 	"/>
	<polygon style="fill:#02C88B;" points="249.7,313 160.6,313 146.2,207.2 235.3,207.2 	"/>
</g>
<path style="fill:#08BD85;" d="M211,207.2h-2.5V191c0-8-6.5-14.6-14.6-14.6h-11c-8.1,0-14.6,6.5-14.6,14.6v16.2h-2.5V191
	c0-9.4,7.6-17,17-17h11c9.4,0,17,7.6,17,17L211,207.2z"/>
<polygon style="fill:#06C78C;" points="127.6,313 144.1,305.6 144.1,313 "/>
<polygon style="fill:#1CBD8C;" points="160.7,313 144.1,305.6 144.1,313 "/>
<polygon style="fill:#08BD85;" points="144.1,305.6 144.1,207.2 141.9,207.2 127.6,313 "/>
<polygon style="fill:#FFE996;" points="199.9,359.2 200.1,359.1 200.3,359 200.5,358.9 200.7,358.8 200.9,358.7 201.1,358.6 
	201.3,358.6 201.5,358.5 201.7,358.4 201.9,358.3 202.1,358.2 202.3,358.1 202.5,358 202.7,357.9 202.9,357.8 203.1,357.8 
	203.3,357.7 203.5,357.6 203.7,357.5 203.9,357.4 204.1,357.3 204.3,357.2 204.5,357.1 204.7,357 204.9,357 205.1,356.9 
	205.3,356.8 205.5,356.7 205.7,356.6 205.9,356.5 205.9,356.5 205.9,356.5 205.9,301.8 205.8,301.9 205.8,356.5 205.7,356.6 
	205.5,356.7 205.4,356.8 205.2,356.8 205.2,306.8 205.2,306.8 205.2,356.8 205,356.9 204.9,357 204.9,309.2 204.8,309.3 204.8,357 
	204.7,357.1 204.5,357.1 204.4,357.2 204.2,357.3 204,357.3 204,315.3 204,315.4 204,357.4 203.8,357.4 203.7,357.5 203.7,317.8 
	197.9,360.1 "/>
<polygon style="fill:#FFE995;" points="206.4,356.3 206.2,356.4 206,356.5 205.9,356.5 205.9,356.5 205.9,356.5 206.1,356.4 
	206.3,356.3 206.5,356.3 206.5,356.3 "/>
<polygon style="fill:#FFE894;" points="206.7,356.2 206.5,356.2 206.5,356.2 206.5,356.3 206.5,356.2 206.7,356.1 206.9,356.1 
	207,356 207,356 207,356 207,293.2 207,293.2 207,356 206.9,356.1 206.7,356.2 206.7,295.7 206.7,295.7 "/>
<polygon style="fill:#FFE893;" points="207.5,355.8 207.4,355.9 207.2,355.9 207,356 207,356 207.1,356 207.3,355.9 207.5,355.8 
	207.6,355.7 207.6,355.7 207.5,355.8 207.5,289.5 207.5,289.6 "/>
<polygon style="fill:#FFE892;" points="208,355.6 207.9,355.6 207.7,355.7 207.6,355.7 207.6,355.7 207.7,355.7 207.9,355.6 
	208.1,355.5 208.2,355.5 208.2,355.5 "/>
<polygon style="fill:#FFE791;" points="208.4,355.4 208.2,355.5 208.2,355.5 208.2,355.5 208.3,355.4 208.5,355.3 208.7,355.3 
	208.7,355.2 208.7,355.2 208.7,355.3 208.7,281 208.7,281 208.7,355.3 208.5,355.3 208.4,355.4 208.4,283.4 208.4,283.5 "/>
<polygon style="fill:#FFE790;" points="209.2,355 209,355.1 208.9,355.2 208.8,355.2 208.8,355.2 208.9,355.2 209.1,355.1 
	209.3,355 209.3,355 209.3,355 209.2,355 209.2,277.2 209.2,277.3 "/>
<polygon style="fill:#FFE78F;" points="209.5,354.9 209.4,355 209.3,355 209.3,355 209.5,354.9 209.7,354.8 209.9,354.7 
	209.9,354.7 209.9,354.7 209.7,354.8 209.5,354.9 209.5,274.8 209.5,274.8 "/>
<polygon style="fill:#FFE68D;" points="210.9,354.3 210.7,354.4 210.5,354.4 210.5,354.5 210.5,354.5 210.5,354.5 210.7,354.4 
	210.9,354.3 211,354.2 211,354.2 "/>
<polygon style="fill:#FFE68C;" points="211,354.2 211,354.2 211.1,354.2 211.3,354.1 211.6,354 211.6,354 211.5,354 211.4,354.1 
	211.2,354.1 211.2,262.5 211.2,262.5 211.2,354.1 211,354.2 211,263.7 211,263.8 "/>
<polygon style="fill:#FFE58B;" points="211.9,353.8 211.7,353.9 211.6,354 211.6,354 212.2,353.7 212.2,353.7 212,353.8 
	211.9,353.8 211.9,257.6 211.9,257.7 "/>
<polygon style="fill:#FFE58A;" points="212.7,353.5 212.5,353.5 212.4,353.6 212.2,353.7 212.2,353.7 212.2,353.7 212.7,353.5 
	212.7,353.4 212.7,353.5 212.7,254.3 212.7,254.3 "/>
<polygon style="fill:#FFE589;" points="213,353.3 212.9,353.4 212.7,353.4 212.7,353.5 213.3,353.2 213.3,353.2 213.2,353.2 
	213,353.3 213,254.3 213,254.3 "/>
<polygon style="fill:#FFE488;" points="213.3,353.2 213.3,353.2 213.9,352.9 213.9,352.9 "/>
<polygon style="fill:#FEE487;" points="213.9,352.9 213.9,352.9 214.4,352.7 214.4,352.7 "/>
<g>
	<polygon style="fill:#FEE386;" points="214.5,352.7 214.5,352.7 214.5,352.7 214.9,352.8 215,352.9 215,254.3 214.5,254.3 	"/>
	<polygon style="fill:#FEE386;" points="214.4,352.7 214.5,352.7 214.5,352.7 	"/>
</g>
<polygon style="fill:#FEE385;" points="215,352.9 215.1,352.9 215.4,353.1 215.6,353.1 215.6,254.3 215,254.3 "/>
<polygon style="fill:#FEE384;" points="216,353.3 216.1,353.4 216.1,254.3 215.6,254.3 215.6,353.1 215.7,353.2 "/>
<polygon style="fill:#FEE283;" points="216.1,353.4 216.2,353.4 216.5,353.6 216.7,353.6 216.7,255.1 216.6,254.3 216.1,254.3 "/>
<polygon style="fill:#FEE282;" points="217.1,353.8 217.3,353.9 217.3,259.3 216.7,255.1 216.7,353.6 216.8,353.7 216.8,360.1 
	216.8,360.1 216.8,353.7 "/>
<polygon style="fill:#FEE281;" points="217.8,354.2 217.8,263.5 217.3,259.3 217.3,353.9 217.4,353.9 217.6,354.1 217.6,360.1 
	217.6,360.1 217.6,354.1 "/>
<polygon style="fill:#FEE180;" points="217.8,354.2 217.9,354.2 218.2,354.3 218.4,354.4 218.4,267.6 217.8,263.5 "/>
<polygon style="fill:#FEE17F;" points="218.4,354.4 218.5,354.4 218.8,354.6 219,354.7 219,271.9 218.4,267.7 "/>
<polygon style="fill:#FEE17E;" points="219.3,354.8 219.5,354.9 219.5,276 219,271.9 219,354.7 219,354.7 219,360.1 219,360.1 
	219,354.7 "/>
<polygon style="fill:#FEE07D;" points="219.5,354.9 219.6,354.9 219.9,355.1 220.1,355.2 220.1,280.2 219.5,276 "/>
<polygon style="fill:#FEE07C;" points="220.1,355.2 220.2,355.2 220.4,355.3 220.7,355.4 220.7,284.4 220.1,280.3 "/>
<polygon style="fill:#FEE07B;" points="220.7,355.4 220.7,355.4 221,355.6 221.3,355.7 221.3,288.6 220.7,284.4 "/>
<polygon style="fill:#FEDF7A;" points="221.6,355.8 221.8,355.9 221.8,292.8 221.3,288.6 221.3,355.7 221.3,355.7 221.3,360.1 
	221.3,360.1 221.3,355.7 "/>
<polygon style="fill:#FEDF79;" points="222.4,356.2 222.4,352.7 222.4,297 221.8,292.8 221.8,355.9 221.8,355.9 222.1,356.1 
	222.1,360.1 222.1,360.1 222.1,356.1 "/>
<polygon style="fill:#FEDF77;" points="222.9,356.4 223,356.5 223,301.2 222.4,297 222.4,356.2 222.4,356.2 222.4,360.1 
	222.4,360.1 222.7,360.1 222.7,356.3 "/>
<polygon style="fill:#FEDE76;" points="223.5,356.7 223.5,305.3 223,301.2 223,356.5 223.2,356.6 223.5,356.7 223.5,360.1 
	223.5,360.1 "/>
<polygon style="fill:#FEDE75;" points="223.5,356.7 223.8,356.8 224.1,356.9 224.1,357 224.1,309.5 223.5,305.3 "/>
<polygon style="fill:#FEDE74;" points="224.1,357 224.3,357.1 224.6,357.2 224.7,357.2 224.7,313.7 224.1,309.6 "/>
<polygon style="fill:#FEDD73;" points="224.7,357.2 224.9,357.3 225.2,357.4 225.2,357.5 225.2,317.9 224.7,313.7 "/>
<polygon style="fill:#FEDD72;" points="225.8,357.7 225.8,322.1 225.2,318 225.2,357.5 225.5,357.6 225.7,357.7 225.7,360.1 
	225.7,360.1 225.7,357.7 "/>
<polygon style="fill:#FEDD71;" points="225.8,357.7 226,357.8 226.3,357.9 226.4,358 226.4,326.3 225.8,322.1 "/>
<polygon style="fill:#FEDC70;" points="226.9,358.2 226.9,358.2 226.9,330.4 226.4,326.3 226.4,358 226.6,358.1 226.6,360.1 
	226.6,360.1 226.6,358.1 "/>
<polygon style="fill:#FEDC6F;" points="226.9,358.2 227.1,358.3 227.4,358.4 227.5,358.5 227.5,334.7 226.9,330.5 "/>
<polygon style="fill:#FEDC6E;" points="228.1,358.7 228.1,338.8 227.5,334.7 227.5,358.5 227.7,358.6 228,358.7 228,360.1 
	228,360.1 228,358.7 "/>
<polygon style="fill:#FEDB6D;" points="228.1,358.7 228.3,358.8 228.5,358.9 228.6,359 228.6,343 228.1,338.9 "/>
<polygon style="fill:#FEDB6C;" points="228.6,359 228.8,359.1 229.1,359.2 229.2,359.3 229.2,347.2 228.6,343 "/>
<polygon style="fill:#FEDB6B;" points="229.2,359.3 229.4,359.3 229.6,359.4 229.8,359.5 229.8,351.4 229.2,347.3 "/>
<polygon style="fill:#FEDA6A;" points="230.4,359.8 230.4,355.6 229.8,351.4 229.8,359.5 229.9,359.6 230.2,359.7 230.2,360.1 
	230.2,360.1 230.2,359.7 "/>
<polygon style="fill:#FDDA69;" points="230.4,359.8 230.5,359.8 230.8,360 230.9,360 230.9,359.8 230.4,355.6 "/>
<polygon style="fill:#FDD968;" points="231,360 230.9,359.8 230.9,360 "/>
<polygon style="fill:#FFE996;" points="218.1,254.3 217.8,254.3 217.3,254.3 217.3,254.3 216.7,254.3 216.7,254.3 216.6,254.3 
	216.7,255.1 217.3,259.3 217.3,259.3 217.8,263.5 218.4,267.6 218.4,267.7 219,271.9 219.5,276 220.1,280.2 220.1,280.3 
	220.7,284.4 221.3,288.6 221.3,288.6 221.8,292.8 222.4,297 222.4,297 223,301.2 223.5,305.3 224.1,309.5 224.1,309.6 224.7,313.7 
	225.2,317.9 225.2,318 225.8,322.1 226.4,326.3 226.9,330.4 226.9,330.5 227.5,334.7 228.1,338.8 228.1,338.9 228.6,343 
	229.2,347.2 229.2,347.3 229.8,351.4 230.4,355.6 230.9,359.8 230.9,359.8 231,360 230.9,360 230.9,360 230.8,360 230.8,360.1 
	230.9,360.1 230.9,360.1 231,360.1 231,360.1 231,360.1 231.5,360.1 232.1,360.1 232.1,360.1 232.4,360.1 "/>
<polygon style="fill:#FFE995;" points="219.6,254.3 219.5,254.3 219,254.3 218.4,254.3 218.4,254.3 218.1,254.3 232.4,360.1 
	232.6,360.1 233.2,360.1 233.8,360.1 233.8,360.1 233.9,360.1 "/>
<polygon style="fill:#FFE894;" points="221.1,254.3 220.7,254.3 220.1,254.3 220.1,254.3 219.6,254.3 233.9,360.1 234.3,360.1 
	234.9,360.1 234.9,360.1 235.4,360.1 "/>
<polygon style="fill:#FFE893;" points="222.6,254.3 222.4,254.3 222.4,254.3 221.8,254.3 221.3,254.3 221.3,254.3 221.1,254.3 
	235.4,360.1 235.5,360.1 236,360.1 236,360.1 236.6,360.1 236.9,360.1 "/>
<polygon style="fill:#FFE892;" points="224.1,254.3 224.1,254.3 224.1,254.3 223.5,254.3 223,254.3 222.6,254.3 236.9,360.1 
	237.2,360.1 237.7,360.1 237.7,360.1 238.3,360.1 238.3,360.1 238.4,360.1 "/>
<polygon style="fill:#FFE791;" points="225.6,254.3 225.2,254.3 225.2,254.3 224.7,254.3 224.1,254.3 238.4,360.1 238.9,360.1 
	238.9,360.1 239.9,360.1 "/>
<polygon style="fill:#FFE790;" points="227.1,254.3 226.9,254.3 226.9,254.3 226.4,254.3 225.8,254.3 225.6,254.3 239.9,360.1 
	241.4,360.1 "/>
<polygon style="fill:#FFE78F;" points="228.6,254.3 228.1,254.3 228.1,254.3 227.5,254.3 227.1,254.3 241.4,360.1 243,360.1 "/>
<polygon style="fill:#FFE68E;" points="230.1,254.3 229.8,254.3 229.2,254.3 229.2,254.3 228.6,254.3 228.6,254.3 243,360.1 
	244.5,360.1 "/>
<polygon style="fill:#FFE68D;" points="231.6,254.3 231.5,254.3 230.9,254.3 230.9,254.3 230.4,254.3 230.1,254.3 244.5,360.1 
	246,360.1 "/>
<polygon style="fill:#FFE68C;" points="233.1,254.3 232.6,254.3 232.1,254.3 232.1,254.3 231.6,254.3 246,360.1 247.5,360.1 "/>
<polygon style="fill:#FFE58B;" points="234.6,254.3 234.3,254.3 233.8,254.3 233.8,254.3 233.2,254.3 233.1,254.3 247.5,360.1 
	249,360.1 "/>
<polygon style="fill:#FFE58A;" points="236.1,254.3 236,254.3 236,254.3 235.5,254.3 234.9,254.3 234.9,254.3 234.6,254.3 
	249,360.1 250.5,360.1 "/>
<polygon style="fill:#FFE589;" points="237.6,254.3 237.2,254.3 237,254.3 236.6,254.3 236.3,254.3 236.1,254.3 250.5,360.1 
	252,360.1 "/>
<polygon style="fill:#FFE488;" points="238.9,254.3 238.9,254.3 238.7,254.3 238.6,254.3 238.3,254.3 238.3,254.3 237.8,254.3 
	237.8,254.3 237.7,254.3 237.7,254.3 237.6,254.3 252,360.1 253.5,360.1 239.1,254.3 "/>
<polygon style="fill:#FEE487;" points="240.1,254.3 239.3,254.3 239.3,254.3 239.1,254.3 253.5,360.1 255,360.1 240.7,254.3 "/>
<polygon style="fill:#FEE386;" points="241.6,254.3 240.8,254.3 240.8,254.3 240.7,254.3 255,360.1 256.5,360.1 242.2,254.3 "/>
<polygon style="fill:#FEE385;" points="243.1,254.3 243.1,254.3 242.4,254.3 242.4,254.3 242.2,254.3 256.5,360.1 258,360.1 
	243.7,254.3 "/>
<polygon style="fill:#FEE384;" points="244.6,254.3 243.9,254.3 243.9,254.3 243.7,254.3 258,360.1 259.5,360.1 245.2,254.3 "/>
<polygon style="fill:#FEE283;" points="246.2,254.3 245.4,254.3 245.4,254.3 245.2,254.3 259.5,360.1 261,360.1 246.7,254.3 "/>
<polygon style="fill:#FEE282;" points="247.7,254.3 246.9,254.3 246.9,254.3 246.7,254.3 261,360.1 262.5,360.1 248.2,254.3 "/>
<polygon style="fill:#FEE281;" points="249.2,254.3 248.4,254.3 248.4,254.3 248.2,254.3 262.5,360.1 264,360.1 249.7,254.3 "/>
<polygon style="fill:#FEE180;" points="250.7,254.3 250,254.3 250,254.3 249.7,254.3 264,360.1 265.5,360.1 251.2,254.3 "/>
<polygon style="fill:#FEE17F;" points="252.3,254.3 252.2,254.3 251.5,254.3 251.2,254.3 265.5,360.1 267,360.1 252.7,254.3 "/>
<polygon style="fill:#FEE17E;" points="253.8,254.3 253.8,254.3 253,254.3 252.7,254.3 267,360.1 268.5,360.1 254.2,254.3 "/>
<polygon style="fill:#FEE07D;" points="255.3,254.3 255.3,254.3 254.5,254.3 254.2,254.3 268.5,360.1 270,360.1 255.7,254.3 "/>
<polygon style="fill:#FEE07C;" points="256.8,254.3 256.8,254.3 256.1,254.3 255.7,254.3 270,360.1 271.5,360.1 257.2,254.3 "/>
<polygon style="fill:#FEE07B;" points="258.3,254.3 258.3,254.3 257.6,254.3 257.2,254.3 271.5,360.1 273,360.1 258.7,254.3 "/>
<polygon style="fill:#FEDF7A;" points="259.9,254.3 259.9,254.3 259.1,254.3 258.7,254.3 273,360.1 274.5,360.1 260.2,254.3 "/>
<polygon style="fill:#FEDF79;" points="261.4,254.3 261.4,254.3 260.6,254.3 260.2,254.3 274.5,360.1 276,360.1 261.7,254.3 "/>
<polygon style="fill:#FEDF77;" points="262.9,254.3 262.9,254.3 262.1,254.3 261.7,254.3 276,360.1 277.5,360.1 263.2,254.3 "/>
<polygon style="fill:#FEDE76;" points="264.4,254.3 264.4,254.3 263.7,254.3 263.2,254.3 277.5,360.1 279,360.1 264.7,254.3 "/>
<polygon style="fill:#FEDE75;" points="265.9,254.3 265.2,254.3 265.2,254.3 264.7,254.3 279,360.1 280.5,360.1 266.2,254.3 "/>
<polygon style="fill:#FEDE74;" points="267.5,254.3 266.7,254.3 266.7,254.3 266.2,254.3 280.5,360.1 282,360.1 267.7,254.3 "/>
<polygon style="fill:#FEDD73;" points="269,254.3 268.2,254.3 268.2,254.3 267.7,254.3 282,360.1 283.5,360.1 269.2,254.3 "/>
<polygon style="fill:#FEDD72;" points="270.5,254.3 269.8,254.3 269.7,254.3 269.2,254.3 283.5,360.1 285,360.1 270.7,254.3 "/>
<polygon style="fill:#FEDD71;" points="272,254.3 271.3,254.3 271.3,254.3 270.7,254.3 285,360.1 286.5,360.1 272.2,254.3 "/>
<polygon style="fill:#FEDC70;" points="273.7,254.3 273.5,254.3 272.8,254.3 272.8,254.3 272.2,254.3 286.5,360.1 287.1,360.1 
	288,360.1 "/>
<polygon style="fill:#FEDC6F;" points="275.2,254.3 275.1,254.3 274.3,254.3 274.3,254.3 273.7,254.3 288,360.1 289.6,360.1 "/>
<polygon style="fill:#FEDC6E;" points="276.7,254.3 276.6,254.3 276.6,254.3 275.8,254.3 275.8,254.3 275.2,254.3 289.6,360.1 
	291.1,360.1 "/>
<polygon style="fill:#FEDB6D;" points="278.2,254.3 278.1,254.3 277.4,254.3 277.3,254.3 276.7,254.3 291.1,360.1 292.6,360.1 "/>
<polygon style="fill:#FEDB6C;" points="279.7,254.3 279.6,254.3 278.9,254.3 278.9,254.3 278.9,254.3 278.2,254.3 292.6,360.1 
	294.1,360.1 "/>
<polygon style="fill:#FEDB6B;" points="281.2,254.3 281.2,254.3 281.2,254.3 280.4,254.3 280.4,254.3 279.7,254.3 294.1,360.1 
	295.6,360.1 "/>
<polygon style="fill:#FEDA6A;" points="282.7,254.3 281.4,254.3 281.2,254.3 295.6,360.1 297.1,360.1 "/>
<polygon style="fill:#FDDA69;" points="284.2,254.3 282.7,254.3 297.1,360.1 298.6,360.1 "/>
<polygon style="fill:#FDD968;" points="285.7,254.3 284.2,254.3 298.6,360.1 300.1,360.1 "/>
<polygon style="fill:#FDD967;" points="287.2,254.3 285.7,254.3 300.1,360.1 301.4,360.1 301.6,360.1 "/>
<polygon style="fill:#FDD966;" points="288.8,254.3 287.2,254.3 301.6,360.1 303.1,360.1 "/>
<polygon style="fill:#FDD865;" points="290.3,254.3 288.8,254.3 303.1,360.1 304.6,360.1 "/>
<polygon style="fill:#FDD864;" points="291.8,254.3 290.3,254.3 304.6,360.1 306.1,360.1 "/>
<polygon style="fill:#FDD863;" points="293.3,254.3 291.8,254.3 306.1,360.1 307.6,360.1 "/>
<polygon style="fill:#FDD762;" points="294.8,254.3 293.3,254.3 307.6,360.1 309.1,360.1 "/>
<polygon style="fill:#FDD761;" points="296.3,254.3 294.8,254.3 309.1,360.1 310.6,360.1 "/>
<polygon style="fill:#FDD760;" points="297.8,254.3 296.3,254.3 310.6,360.1 312.1,360.1 "/>
<polygon style="fill:#FDD65F;" points="299.3,254.3 297.8,254.3 312.1,360.1 313.6,360.1 "/>
<polygon style="fill:#FDD65E;" points="300.8,254.3 299.3,254.3 313.6,360.1 315.1,360.1 "/>
<polygon style="fill:#FDD65D;" points="301.4,254.3 300.8,254.3 315.1,360.1 316.6,360.1 302.3,254.3 "/>
<polygon style="fill:#FDD55C;" points="302.3,254.3 316.6,360.1 318.1,360.1 303.8,254.3 "/>
<polygon style="fill:#FDD55B;" points="305.3,254.3 303.8,254.3 318.1,360.1 319.6,360.1 320.1,360.1 305.7,254.3 "/>
<path style="fill:#FFE996;" d="M237,254.3v-21.2c-0.5,1.6-0.8,3.3-0.8,5v16.2h0.3H237z"/>
<path style="fill:#FFE995;" d="M237.2,254.3h0.5h0.1l0,0l0,0v-23.2c-0.3,0.6-0.5,1.3-0.8,2v21.2H237.2z"/>
<path style="fill:#FFE894;" d="M237.8,254.3h0.5l0,0h0.2v-24.7c-0.3,0.5-0.5,1-0.8,1.5L237.8,254.3L237.8,254.3z"/>
<path style="fill:#FFE893;" d="M238.7,254.3v-16.2c0-1.4,0.2-2.8,0.6-4.1v-5.6c-0.3,0.4-0.5,0.8-0.8,1.2v24.7L238.7,254.3
	L238.7,254.3z"/>
<path style="fill:#FFE892;" d="M240.1,232.1v-4.6c-0.3,0.3-0.5,0.7-0.8,1v5.6C239.5,233.4,239.8,232.7,240.1,232.1z"/>
<path style="fill:#FFE791;" d="M240.8,230.6v-4c-0.3,0.3-0.5,0.6-0.8,0.9v4.6C240.3,231.6,240.6,231.1,240.8,230.6z"/>
<path style="fill:#FFE790;" d="M241.6,229.5v-3.7c-0.3,0.3-0.5,0.5-0.8,0.8v4C241.1,230.2,241.3,229.9,241.6,229.5z"/>
<path style="fill:#FFE78F;" d="M242.4,228.6v-3.4c-0.3,0.2-0.5,0.5-0.8,0.7v3.7C241.8,229.2,242.1,228.9,242.4,228.6z"/>
<path style="fill:#FFE68E;" d="M243.1,227.7v-3.2c-0.3,0.2-0.5,0.4-0.8,0.6v3.4C242.6,228.3,242.9,228,243.1,227.7z"/>
<path style="fill:#FFE68D;" d="M243.1,224.5v3.2c0.2-0.2,0.5-0.5,0.8-0.7v-3C243.6,224.2,243.4,224.3,243.1,224.5z"/>
<path style="fill:#FFE68C;" d="M243.9,224v3.1c0.2-0.2,0.5-0.4,0.8-0.6v-2.9C244.4,223.7,244.1,223.8,243.9,224z"/>
<path style="fill:#FFE58B;" d="M244.6,223.5v2.9c0.2-0.2,0.5-0.4,0.8-0.5v-2.8C245.1,223.2,244.9,223.4,244.6,223.5z"/>
<path style="fill:#FFE58A;" d="M245.4,223.1v2.8c0.3-0.2,0.5-0.3,0.8-0.5v-2.7C245.9,222.8,245.6,222.9,245.4,223.1z"/>
<path style="fill:#FFE589;" d="M246.2,222.7v2.7c0.2-0.1,0.5-0.3,0.8-0.4v-2.7C246.7,222.5,246.4,222.6,246.2,222.7z"/>
<path style="fill:#FFE488;" d="M246.9,222.4v2.7c0.3-0.1,0.5-0.3,0.8-0.4v-2.6C247.4,222.2,247.2,222.3,246.9,222.4z"/>
<path style="fill:#FEE487;" d="M247.7,222.1v2.6c0.2-0.1,0.5-0.2,0.8-0.3v-2.6C248.2,221.9,247.9,222,247.7,222.1z"/>
<path style="fill:#FEE386;" d="M248.4,221.8v2.6c0.3-0.1,0.5-0.2,0.8-0.3v-2.5C248.9,221.7,248.7,221.8,248.4,221.8z"/>
<path style="fill:#FEE385;" d="M249.2,221.6v2.5c0.2-0.1,0.5-0.1,0.8-0.2v-2.5C249.7,221.5,249.5,221.6,249.2,221.6z"/>
<path style="fill:#FEE384;" d="M250,221.5v2.5c0.3-0.1,0.5-0.1,0.8-0.2v-2.5C250.5,221.4,250.2,221.4,250,221.5z"/>
<path style="fill:#FEE283;" d="M250.7,221.3v2.5c0.3,0,0.5-0.1,0.8-0.1v-2.5C251.2,221.2,251,221.3,250.7,221.3z"/>
<path style="fill:#FEE282;" d="M251.5,221.2v2.5c0.3,0,0.5-0.1,0.8-0.1v-2.5C252,221.2,251.7,221.2,251.5,221.2z"/>
<path style="fill:#FEE281;" d="M252.2,221.2v2.5c0.3,0,0.5,0,0.8,0v-2.5C252.8,221.1,252.5,221.2,252.2,221.2z"/>
<path style="fill:#FEE180;" d="M253,223.6c0.1,0,0.2,0,0.3,0h0.5v-2.5h-0.5c-0.1,0-0.2,0-0.3,0V223.6z"/>
<polygon style="fill:#FEE17F;" points="254.5,223.6 254.5,221.1 253.8,221.1 253.8,221.1 253.8,223.6 "/>
<rect x="254.5" y="221.1" style="fill:#FEE17E;" width="0.8" height="2.5"/>
<polygon style="fill:#FEE07D;" points="256.1,223.6 256.1,221.1 255.3,221.1 255.3,221.1 255.3,223.6 "/>
<rect x="256.1" y="221.1" style="fill:#FEE07C;" width="0.8" height="2.5"/>
<polygon style="fill:#FEE07B;" points="257.6,223.6 257.6,221.1 256.8,221.1 256.8,221.1 256.8,223.6 "/>
<rect x="257.6" y="221.1" style="fill:#FEDF7A;" width="0.8" height="2.5"/>
<polygon style="fill:#FEDF79;" points="259.1,223.6 259.1,221.1 258.3,221.1 258.3,221.1 258.3,223.6 "/>
<rect x="259.1" y="221.1" style="fill:#FEDF77;" width="0.8" height="2.5"/>
<polygon style="fill:#FEDE76;" points="260.6,223.6 260.6,221.1 259.9,221.1 259.9,221.1 259.9,223.6 "/>
<rect x="260.6" y="221.1" style="fill:#FEDE75;" width="0.8" height="2.5"/>
<polygon style="fill:#FEDE74;" points="262.1,223.6 262.1,221.1 261.4,221.1 261.4,221.1 261.4,223.6 "/>
<rect x="262.1" y="221.1" style="fill:#FEDD73;" width="0.8" height="2.5"/>
<polygon style="fill:#FEDD72;" points="263.7,223.6 263.7,221.1 262.9,221.1 262.9,221.1 262.9,223.6 "/>
<path style="fill:#FEDD71;" d="M264.3,223.6C264.4,223.6,264.4,223.6,264.3,223.6l0.1-2.4c0,0,0,0-0.1,0h-0.7v2.5h0.7V223.6z"/>
<path style="fill:#FEDC70;" d="M265.2,223.6v-2.5c-0.3,0-0.5,0-0.8,0v2.5C264.7,223.6,264.9,223.6,265.2,223.6z"/>
<path style="fill:#FEDC6F;" d="M265.2,221.2v2.5c0.3,0,0.5,0,0.8,0.1v-2.5C265.7,221.2,265.4,221.2,265.2,221.2z"/>
<path style="fill:#FEDC6E;" d="M265.9,221.2v2.5c0.3,0,0.5,0.1,0.8,0.1v-2.5C266.4,221.3,266.2,221.2,265.9,221.2z"/>
<path style="fill:#FEDB6D;" d="M266.7,221.3v2.5c0.3,0,0.5,0.1,0.8,0.1v-2.5C267.2,221.4,267,221.3,266.7,221.3z"/>
<path style="fill:#FEDB6C;" d="M267.5,221.4v2.5c0.3,0.1,0.5,0.1,0.8,0.2v-2.5C268,221.5,267.7,221.5,267.5,221.4z"/>
<path style="fill:#FEDB6B;" d="M268.2,221.6v2.5c0.3,0.1,0.5,0.1,0.8,0.2v-2.6C268.7,221.7,268.5,221.6,268.2,221.6z"/>
<path style="fill:#FEDA6A;" d="M269,221.8v2.6c0.3,0.1,0.5,0.2,0.8,0.3V222C269.5,221.9,269.2,221.9,269,221.8z"/>
<path style="fill:#FDDA69;" d="M269.7,222v2.6c0.3,0.1,0.5,0.2,0.8,0.3v-2.7C270.3,222.2,270,222.1,269.7,222z"/>
<path style="fill:#FDD968;" d="M270.5,222.3v2.7c0.3,0.1,0.5,0.2,0.8,0.4v-2.7C271,222.5,270.8,222.4,270.5,222.3z"/>
<path style="fill:#FDD967;" d="M271.3,222.6v2.7c0.3,0.1,0.5,0.3,0.8,0.5V223C271.8,222.8,271.5,222.7,271.3,222.6z"/>
<path style="fill:#FDD966;" d="M272,223v2.8c0.3,0.2,0.5,0.3,0.8,0.5v-2.9C272.5,223.2,272.3,223.1,272,223z"/>
<path style="fill:#FDD865;" d="M272.8,223.4v2.9c0.3,0.2,0.5,0.4,0.8,0.6v-3C273.3,223.7,273,223.5,272.8,223.4z"/>
<path style="fill:#FDD864;" d="M273.5,223.8v3c0.3,0.2,0.5,0.4,0.8,0.7v-3.2C274.1,224.2,273.8,224,273.5,223.8z"/>
<path style="fill:#FDD863;" d="M274.3,224.4v3.2c0.3,0.2,0.5,0.5,0.8,0.8V225C274.8,224.7,274.6,224.6,274.3,224.4z"/>
<path style="fill:#FDD762;" d="M275.1,224.9v3.4c0.3,0.3,0.5,0.6,0.8,0.9v-3.6C275.6,225.4,275.3,225.1,275.1,224.9z"/>
<path style="fill:#FDD761;" d="M275.8,225.6v3.6c0.3,0.3,0.5,0.7,0.8,1.1v-3.9C276.3,226.1,276.1,225.8,275.8,225.6z"/>
<path style="fill:#FDD760;" d="M276.6,226.3v3.9c0.3,0.4,0.5,0.9,0.8,1.3v-4.4C277.1,226.9,276.9,226.6,276.6,226.3z"/>
<path style="fill:#FDD65F;" d="M277.3,227.2v4.4c0.3,0.6,0.5,1.2,0.8,1.8v-5.2C277.9,227.8,277.6,227.5,277.3,227.2z"/>
<path style="fill:#FDD65E;" d="M278.1,228.2v5.2c0.4,1.1,0.7,2.3,0.8,3.6v-7.7C278.6,228.9,278.4,228.5,278.1,228.2z"/>
<path style="fill:#FDD65D;" d="M279.6,230.7c-0.2-0.5-0.5-0.9-0.8-1.4v7.7c0,0.4,0.1,0.8,0.1,1.2v16.2h0.7L279.6,230.7L279.6,230.7z
	"/>
<path style="fill:#FDD55C;" d="M279.7,254.3h0.7v-21.8c-0.2-0.6-0.5-1.2-0.8-1.8v23.6H279.7z"/>
<path style="fill:#FDD55B;" d="M280.4,254.3h0.8l0,0h0.1h0.1v-16.2c0-2-0.4-3.9-1-5.6V254.3L280.4,254.3z"/>
<g>
	<polygon style="fill:#FFE996;" points="214.4,352.7 214.4,352.7 213.9,352.9 213.3,353.2 213.3,353.2 212.7,353.5 212.2,353.7 
		211.6,354 211.6,354 211.3,354.1 212.4,360.1 212.5,360.1 212.6,360.1 212.7,360.1 212.7,360.1 212.7,360.1 212.9,360.1 213,360.1 
		213,360.1 213.2,360.1 213.3,360.1 213.3,360.1 213.4,360.1 213.9,360.1 213.9,360.1 214.4,360.1 214.4,360.1 214.5,360.1 
		214.5,352.7 	"/>
	<path style="fill:#FFE996;" d="M214.5,352.7L214.5,352.7L214.5,352.7z"/>
</g>
<polygon style="fill:#FFE995;" points="211.3,354.1 211.1,354.2 212.1,360.1 212.2,360.1 212.2,360.1 212.4,360.1 212.4,360.1 "/>
<polygon style="fill:#FFE894;" points="211.1,354.2 211,354.2 210.9,354.3 211.9,360.1 212,360.1 212.1,360.1 "/>
<polygon style="fill:#FFE893;" points="210.9,354.3 210.7,354.4 211.7,360.1 211.9,360.1 211.9,360.1 211.9,360.1 "/>
<polygon style="fill:#FFE892;" points="210.7,354.4 210.5,354.5 211.5,360.1 211.5,360.1 211.6,360.1 211.6,360.1 211.7,360.1 
	211.7,360.1 "/>
<polygon style="fill:#FFE791;" points="210.5,354.5 210.5,354.5 210.4,354.5 210.3,354.5 211.3,360.1 211.4,360.1 211.5,360.1 "/>
<polygon style="fill:#FFE790;" points="210.3,354.5 210.1,354.6 211.1,360.1 211.2,360.1 211.2,360.1 211.3,360.1 "/>
<polygon style="fill:#FFE78F;" points="210.1,354.6 209.9,354.7 210.9,360.1 211,360.1 211,360.1 211.1,360.1 "/>
<polygon style="fill:#FFE68E;" points="209.9,354.7 210.1,354.6 210.3,354.5 210.4,354.5 210.4,354.5 210.4,354.5 210.2,354.6 
	210.2,269.9 210.2,269.9 210.2,354.6 210,354.7 209.9,354.7 209.9,354.7 209.7,354.8 210.6,360.1 210.7,360.1 210.9,360.1 "/>
<polygon style="fill:#FFE68D;" points="209.7,354.8 209.5,354.9 210.4,360.1 210.4,360.1 210.5,360.1 210.5,360.1 210.6,360.1 "/>
<polygon style="fill:#FFE68C;" points="209.5,354.9 209.3,355 209.3,355 210.2,360.1 210.4,360.1 210.4,360.1 "/>
<polygon style="fill:#FFE58B;" points="209.3,355 209.1,355.1 210,360.1 210,360.1 210.2,360.1 210.2,360.1 210.2,360.1 "/>
<polygon style="fill:#FFE58A;" points="209.1,355.1 208.9,355.2 209.8,360.1 209.9,360.1 209.9,360.1 210,360.1 "/>
<polygon style="fill:#FFE589;" points="208.9,355.2 208.8,355.2 208.7,355.2 208.7,355.3 209.6,360.1 209.7,360.1 209.8,360.1 "/>
<polygon style="fill:#FFE488;" points="208.7,355.3 208.5,355.3 209.4,360.1 209.4,360.1 209.5,360.1 209.5,360.1 209.6,360.1 "/>
<polygon style="fill:#FEE487;" points="208.5,355.3 208.3,355.4 209.1,360.1 209.2,360.1 209.2,360.1 209.3,360.1 209.4,360.1 "/>
<polygon style="fill:#FEE386;" points="208.3,355.4 208.2,355.5 208.1,355.5 208.9,360.1 209,360.1 209.1,360.1 "/>
<polygon style="fill:#FEE385;" points="208.1,355.5 207.9,355.6 208.7,360.1 208.7,360.1 208.8,360.1 208.9,360.1 208.9,360.1 "/>
<polygon style="fill:#FEE384;" points="207.9,355.6 207.7,355.7 208.5,360.1 208.5,360.1 208.7,360.1 208.7,360.1 208.7,360.1 "/>
<polygon style="fill:#FEE283;" points="207.7,355.7 207.6,355.7 207.6,355.7 207.5,355.8 208.3,360.1 208.4,360.1 208.4,360.1 
	208.5,360.1 "/>
<polygon style="fill:#FEE282;" points="207.5,355.8 207.3,355.9 208.1,360.1 208.2,360.1 208.2,360.1 208.3,360.1 "/>
<polygon style="fill:#FEE281;" points="207.3,355.9 207.1,356 207.8,360.1 207.9,360.1 208,360.1 208.1,360.1 "/>
<polygon style="fill:#FEE180;" points="207.1,356 207,356 206.9,356.1 207.6,360.1 207.7,360.1 207.8,360.1 "/>
<polygon style="fill:#FEE17F;" points="206.9,356.1 206.7,356.1 207.4,360.1 207.5,360.1 207.5,360.1 207.6,360.1 207.6,360.1 
	207.6,360.1 "/>
<polygon style="fill:#FEE17E;" points="206.7,356.1 206.5,356.2 207.2,360.1 207.4,360.1 207.4,360.1 "/>
<polygon style="fill:#FEE07D;" points="206.5,356.2 206.5,356.3 206.5,356.3 206.3,356.3 207,360.1 207,360.1 207,360.1 207,360.1 
	207.2,360.1 207.2,360.1 "/>
<polygon style="fill:#FEE07C;" points="206.3,356.3 206.1,356.4 206.8,360.1 206.9,360.1 207,360.1 "/>
<polygon style="fill:#FEE07B;" points="206.1,356.4 205.9,356.5 206.6,360.1 206.7,360.1 206.7,360.1 206.8,360.1 "/>
<polygon style="fill:#FEDF7A;" points="205.9,356.5 205.9,356.5 205.7,356.6 206.3,360.1 206.4,360.1 206.5,360.1 206.5,360.1 
	206.5,360.1 206.6,360.1 "/>
<polygon style="fill:#FEDF79;" points="205.7,356.6 205.5,356.7 206.1,360.1 206.2,360.1 206.3,360.1 "/>
<polygon style="fill:#FEDF77;" points="205.5,356.7 205.3,356.8 205.9,360.1 206,360.1 206.1,360.1 "/>
<polygon style="fill:#FEDE76;" points="205.3,356.8 205.1,356.9 205.7,360.1 205.8,360.1 205.9,360.1 205.9,360.1 205.9,360.1 "/>
<polygon style="fill:#FEDE75;" points="205.1,356.9 204.9,357 205.5,360.1 205.5,360.1 205.7,360.1 205.7,360.1 "/>
<polygon style="fill:#FEDE74;" points="204.9,357 204.7,357 205.3,360.1 205.3,360.1 205.4,360.1 205.5,360.1 "/>
<polygon style="fill:#FEDD73;" points="204.7,357 204.5,357.1 205,360.1 205.2,360.1 205.2,360.1 205.3,360.1 "/>
<polygon style="fill:#FEDD72;" points="204.5,357.1 204.3,357.2 204.8,360.1 204.8,360.1 204.9,360.1 205,360.1 205,360.1 "/>
<polygon style="fill:#FEDD71;" points="204.3,357.2 204.1,357.3 204.6,360.1 204.7,360.1 204.8,360.1 "/>
<polygon style="fill:#FEDC70;" points="204.1,357.3 203.9,357.4 204.4,360.1 204.5,360.1 204.6,360.1 "/>
<polygon style="fill:#FEDC6F;" points="203.9,357.4 203.7,357.5 204.2,360.1 204.4,360.1 204.4,360.1 "/>
<polygon style="fill:#FEDC6E;" points="203.7,357.5 203.5,357.6 204,360.1 204,360.1 204,360.1 204.2,360.1 "/>
<polygon style="fill:#FEDB6D;" points="203.5,357.6 203.3,357.7 203.8,360.1 203.8,360.1 204,360.1 "/>
<polygon style="fill:#FEDB6C;" points="203.3,357.7 203.1,357.8 203.5,360.1 203.7,360.1 203.8,360.1 "/>
<polygon style="fill:#FEDB6B;" points="203.1,357.8 202.9,357.8 203.3,360.1 203.5,360.1 203.5,360.1 "/>
<polygon style="fill:#FEDA6A;" points="202.7,357.9 203.1,360.1 203.3,360.1 202.9,357.8 "/>
<polygon style="fill:#FDDA69;" points="202.5,358 202.9,360.1 203.1,360.1 202.7,357.9 "/>
<polygon style="fill:#FDD968;" points="202.3,358.1 202.7,360.1 202.9,360.1 202.5,358 "/>
<polygon style="fill:#FDD967;" points="202.1,358.2 202.5,360.1 202.7,360.1 202.3,358.1 "/>
<polygon style="fill:#FDD966;" points="201.9,358.3 202.2,360.1 202.5,360.1 202.1,358.2 "/>
<polygon style="fill:#FDD865;" points="201.7,358.4 202,360.1 202.2,360.1 201.9,358.3 "/>
<polygon style="fill:#FDD864;" points="201.5,358.5 201.8,360.1 202,360.1 201.7,358.4 "/>
<polygon style="fill:#FDD863;" points="201.3,358.6 201.6,360.1 201.8,360.1 201.5,358.5 "/>
<polygon style="fill:#FDD762;" points="201.1,358.6 201.4,360.1 201.6,360.1 201.3,358.6 "/>
<polygon style="fill:#FDD761;" points="200.9,358.7 201.2,360.1 201.4,360.1 201.1,358.6 "/>
<polygon style="fill:#FDD760;" points="200.7,358.8 201,360.1 201.2,360.1 200.9,358.7 "/>
<polygon style="fill:#FDD65F;" points="200.5,358.9 200.7,360.1 201,360.1 200.7,358.8 "/>
<polygon style="fill:#FDD65E;" points="200.3,359 200.5,360.1 200.7,360.1 200.5,358.9 "/>
<polygon style="fill:#FDD65D;" points="200.1,359.1 200.3,360.1 200.5,360.1 200.3,359 "/>
<polygon style="fill:#FDD55C;" points="199.9,359.2 200.1,360.1 200.3,360.1 200.1,359.1 "/>
<polygon style="fill:#FDD55B;" points="197.9,360.1 199.9,360.1 200.1,360.1 199.9,359.2 "/>
<polygon style="fill:#FFE995;" points="230.5,359.8 230.5,360.1 230.8,360.1 230.8,360 "/>
<polygon style="fill:#FFE894;" points="230.4,359.8 230.2,359.7 230.2,360.1 230.4,360.1 230.5,360.1 230.5,359.8 "/>
<polygon style="fill:#FFE893;" points="229.9,359.6 229.9,360.1 230.2,360.1 230.2,359.7 "/>
<polygon style="fill:#FFE892;" points="229.8,359.5 229.6,359.4 229.6,360.1 229.8,360.1 229.9,360.1 229.9,359.6 "/>
<polygon style="fill:#FFE791;" points="229.4,359.3 229.4,360.1 229.6,360.1 229.6,359.4 "/>
<polygon style="fill:#FFE790;" points="229.2,359.3 229.2,359.3 229.1,359.2 229.1,360.1 229.2,360.1 229.2,360.1 229.4,360.1 
	229.4,359.3 "/>
<polygon style="fill:#FFE78F;" points="228.8,359.1 228.8,360.1 229.1,360.1 229.1,359.2 "/>
<polygon style="fill:#FFE68E;" points="228.6,359 228.5,358.9 228.5,360.1 228.6,360.1 228.8,360.1 228.8,359.1 "/>
<polygon style="fill:#FFE68D;" points="228.3,358.8 228.3,360.1 228.5,360.1 228.5,358.9 "/>
<polygon style="fill:#FFE68C;" points="228.1,358.7 228.1,358.7 228,358.7 228,360.1 228.1,360.1 228.1,360.1 228.3,360.1 
	228.3,358.8 "/>
<polygon style="fill:#FFE58B;" points="227.7,358.6 227.7,360.1 228,360.1 228,358.7 "/>
<polygon style="fill:#FFE58A;" points="227.5,358.5 227.4,358.4 227.4,360.1 227.5,360.1 227.7,360.1 227.7,358.6 "/>
<polygon style="fill:#FFE589;" points="227.1,358.3 227.1,360.1 227.4,360.1 227.4,358.4 "/>
<polygon style="fill:#FFE488;" points="226.9,358.2 226.9,358.2 226.9,358.2 226.9,360.1 226.9,360.1 226.9,360.1 227.1,360.1 
	227.1,358.3 "/>
<polygon style="fill:#FEE487;" points="226.6,358.1 226.6,360.1 226.9,360.1 226.9,358.2 "/>
<polygon style="fill:#FEE386;" points="226.4,358 226.3,357.9 226.3,360.1 226.4,360.1 226.6,360.1 226.6,358.1 "/>
<polygon style="fill:#FEE385;" points="226,357.8 226,360.1 226.3,360.1 226.3,357.9 "/>
<polygon style="fill:#FEE384;" points="225.8,357.7 225.7,357.7 225.7,360.1 225.8,360.1 226,360.1 226,357.8 "/>
<polygon style="fill:#FEE283;" points="225.5,357.6 225.5,360.1 225.7,360.1 225.7,357.7 "/>
<polygon style="fill:#FEE282;" points="225.2,357.5 225.2,357.5 225.2,357.4 225.2,360.1 225.2,360.1 225.2,360.1 225.5,360.1 
	225.5,357.6 "/>
<polygon style="fill:#FEE281;" points="224.9,357.3 224.9,360.1 225.2,360.1 225.2,357.4 "/>
<polygon style="fill:#FEE180;" points="224.7,357.2 224.6,357.2 224.6,360.1 224.7,360.1 224.9,360.1 224.9,357.3 "/>
<polygon style="fill:#FEE17F;" points="224.3,357.1 224.3,360.1 224.6,360.1 224.6,357.2 "/>
<polygon style="fill:#FEE17E;" points="224.1,357 224.1,357 224.1,356.9 224.1,360.1 224.1,360.1 224.1,360.1 224.3,360.1 
	224.3,357.1 "/>
<polygon style="fill:#FEE07D;" points="223.8,356.8 223.8,360.1 224.1,360.1 224.1,356.9 "/>
<polygon style="fill:#FEE07C;" points="223.5,356.7 223.5,356.7 223.5,360.1 223.5,360.1 223.8,360.1 223.8,356.8 "/>
<polygon style="fill:#FEE07B;" points="223.2,356.6 223.2,360.1 223.5,360.1 223.5,356.7 "/>
<polygon style="fill:#FEDF7A;" points="223,356.5 222.9,356.4 222.9,360.1 223,360.1 223.2,360.1 223.2,356.6 "/>
<polygon style="fill:#FEDF79;" points="222.7,356.3 222.7,360.1 222.9,360.1 222.9,356.4 "/>
<polygon style="fill:#FEDE76;" points="222.1,356.1 222.1,360.1 222.4,360.1 222.4,356.2 "/>
<polygon style="fill:#FEDE75;" points="221.8,355.9 221.8,360.1 222.1,360.1 222.1,356.1 "/>
<polygon style="fill:#FEDE74;" points="221.8,355.9 221.6,355.8 221.6,360.1 221.8,360.1 221.8,360.1 "/>
<polygon style="fill:#FEDD73;" points="221.3,355.7 221.3,360.1 221.6,360.1 221.6,355.8 "/>
<polygon style="fill:#FEDD72;" points="221.3,355.7 221.3,355.7 221,355.6 221,360.1 221.3,360.1 221.3,360.1 221.3,360.1 "/>
<polygon style="fill:#FEDD71;" points="220.7,355.4 220.7,360.1 221,360.1 221,355.6 "/>
<polygon style="fill:#FEDC70;" points="220.7,355.4 220.4,355.3 220.4,360.1 220.7,360.1 220.7,360.1 "/>
<polygon style="fill:#FEDC6F;" points="220.2,355.2 220.2,360.1 220.4,360.1 220.4,355.3 "/>
<polygon style="fill:#FEDC6E;" points="220.1,355.2 220.1,355.2 219.9,355.1 219.9,360.1 220.1,360.1 220.1,360.1 220.2,360.1 
	220.2,355.2 "/>
<polygon style="fill:#FEDB6D;" points="219.6,354.9 219.6,360.1 219.9,360.1 219.9,355.1 "/>
<polygon style="fill:#FEDB6C;" points="219.5,354.9 219.3,354.8 219.3,360.1 219.5,360.1 219.6,360.1 219.6,354.9 "/>
<polygon style="fill:#FEDB6B;" points="219,354.7 219,360.1 219.3,360.1 219.3,354.8 "/>
<polygon style="fill:#FEDA6A;" points="219,354.7 218.8,354.6 218.8,360.1 219,360.1 219,360.1 "/>
<polygon style="fill:#FDDA69;" points="218.5,354.4 218.5,360.1 218.8,360.1 218.8,354.6 "/>
<polygon style="fill:#FDD968;" points="218.4,354.4 218.4,354.4 218.2,354.3 218.2,360.1 218.4,360.1 218.4,360.1 218.5,360.1 
	218.5,354.4 "/>
<polygon style="fill:#FDD967;" points="217.9,354.2 217.9,360.1 218.2,360.1 218.2,354.3 "/>
<polygon style="fill:#FDD966;" points="217.8,354.2 217.6,354.1 217.6,360.1 217.8,360.1 217.9,360.1 217.9,354.2 "/>
<polygon style="fill:#FDD865;" points="217.4,353.9 217.4,360.1 217.6,360.1 217.6,354.1 "/>
<polygon style="fill:#FDD864;" points="217.3,353.9 217.3,353.9 217.1,353.8 217.1,360.1 217.3,360.1 217.3,360.1 217.4,360.1 
	217.4,353.9 "/>
<polygon style="fill:#FDD863;" points="216.8,353.7 216.8,360.1 217.1,360.1 217.1,353.8 "/>
<polygon style="fill:#FDD762;" points="216.7,353.6 216.5,353.6 216.5,360.1 216.6,360.1 216.7,360.1 216.7,360.1 216.8,360.1 
	216.8,353.7 "/>
<polygon style="fill:#FDD761;" points="216.2,353.4 216.2,360.1 216.5,360.1 216.5,353.6 "/>
<polygon style="fill:#FDD760;" points="216.1,353.4 216,353.3 216,360.1 216.1,360.1 216.2,360.1 216.2,353.4 "/>
<polygon style="fill:#FDD65F;" points="215.7,353.2 215.7,360.1 216,360.1 216,353.3 "/>
<polygon style="fill:#FDD65E;" points="215.6,353.1 215.6,353.1 215.4,353.1 215.4,360.1 215.6,360.1 215.6,360.1 215.7,360.1 
	215.7,353.2 "/>
<polygon style="fill:#FDD65D;" points="215.1,352.9 215.1,360.1 215.4,360.1 215.4,353.1 "/>
<polygon style="fill:#FDD55C;" points="215,352.9 214.9,352.8 214.9,360.1 215,360.1 215.1,360.1 215.1,352.9 "/>
<polygon style="fill:#FDD55B;" points="214.5,352.7 214.5,352.7 214.5,352.7 214.5,352.7 214.5,360.1 214.5,360.1 214.6,360.1 
	214.9,360.1 214.9,352.8 "/>
<polygon style="fill:#FFE995;" points="203.7,357.5 203.8,357.4 203.8,316.6 203.7,317.8 "/>
<polygon style="fill:#FFE894;" points="203.8,357.4 204,357.4 204,315.4 203.8,316.6 "/>
<polygon style="fill:#FFE893;" points="204,357.3 204.2,357.3 204.2,314.1 204,315.3 "/>
<polygon style="fill:#FFE892;" points="204.2,357.3 204.4,357.2 204.4,312.9 204.2,314.1 "/>
<polygon style="fill:#FFE791;" points="204.4,357.2 204.5,357.1 204.5,311.7 204.4,312.9 "/>
<polygon style="fill:#FFE790;" points="204.5,357.1 204.7,357.1 204.7,310.5 204.5,311.7 "/>
<polygon style="fill:#FFE78F;" points="204.7,357.1 204.8,357 204.8,309.3 204.7,310.5 "/>
<polygon style="fill:#FFE68E;" points="204.9,357 205,356.9 205,308 204.9,309.2 "/>
<polygon style="fill:#FFE68D;" points="205,356.9 205.2,356.8 205.2,306.8 205,308 "/>
<polygon style="fill:#FFE68C;" points="205.2,356.8 205.4,356.8 205.4,305.5 205.2,306.8 "/>
<polygon style="fill:#FFE58B;" points="205.4,356.8 205.5,356.7 205.5,304.3 205.4,305.5 "/>
<polygon style="fill:#FFE58A;" points="205.5,356.7 205.7,356.6 205.7,303.1 205.5,304.3 "/>
<polygon style="fill:#FFE589;" points="205.7,356.6 205.8,356.5 205.8,301.9 205.7,303.1 "/>
<polygon style="fill:#FFE488;" points="205.9,356.5 205.9,356.5 206,356.5 206,300.6 205.9,301.8 "/>
<polygon style="fill:#FEE487;" points="206,356.5 206.2,356.4 206.2,299.4 206,300.6 "/>
<polygon style="fill:#FEE386;" points="206.2,356.4 206.4,356.3 206.4,298.2 206.2,299.4 "/>
<polygon style="fill:#FEE385;" points="206.4,356.3 206.5,356.3 206.5,356.2 206.5,356.2 206.5,297 206.4,298.2 "/>
<polygon style="fill:#FEE384;" points="206.5,356.2 206.7,356.2 206.7,295.7 206.5,297 "/>
<polygon style="fill:#FEE283;" points="206.7,356.2 206.9,356.1 206.9,294.5 206.7,295.7 "/>
<polygon style="fill:#FEE282;" points="206.9,356.1 207,356 207,293.2 206.9,294.5 "/>
<polygon style="fill:#FEE281;" points="207,356 207,356 207.2,355.9 207.2,292 207,293.2 "/>
<polygon style="fill:#FEE180;" points="207.2,355.9 207.4,355.9 207.4,290.8 207.2,292 "/>
<polygon style="fill:#FEE17F;" points="207.4,355.9 207.5,355.8 207.5,289.6 207.4,290.8 "/>
<polygon style="fill:#FEE17E;" points="207.5,355.8 207.6,355.7 207.6,355.7 207.7,355.7 207.7,288.3 207.5,289.5 "/>
<polygon style="fill:#FEE07D;" points="207.7,355.7 207.9,355.6 207.9,287.1 207.7,288.3 "/>
<polygon style="fill:#FEE07C;" points="207.9,355.6 208,355.6 208,285.9 207.9,287.1 "/>
<polygon style="fill:#FEE07B;" points="208,355.6 208.2,355.5 208.2,355.5 208.2,284.7 208,285.9 "/>
<polygon style="fill:#FEDF7A;" points="208.2,355.5 208.4,355.4 208.4,283.5 208.2,284.7 "/>
<polygon style="fill:#FEDF79;" points="208.4,355.4 208.5,355.3 208.5,282.2 208.4,283.4 "/>
<polygon style="fill:#FEDF77;" points="208.5,355.3 208.7,355.3 208.7,281 208.5,282.2 "/>
<polygon style="fill:#FEDE76;" points="208.7,355.3 208.7,355.2 208.8,355.2 208.9,355.2 208.9,279.7 208.7,281 "/>
<polygon style="fill:#FEDE75;" points="208.9,355.2 209,355.1 209,278.5 208.9,279.7 "/>
<polygon style="fill:#FEDE74;" points="209,355.1 209.2,355 209.2,277.3 209,278.5 "/>
<polygon style="fill:#FEDD73;" points="209.2,355 209.3,355 209.4,355 209.4,276 209.2,277.2 "/>
<polygon style="fill:#FEDD72;" points="209.4,355 209.5,354.9 209.5,274.8 209.4,276 "/>
<polygon style="fill:#FEDD71;" points="209.5,354.9 209.7,354.8 209.7,273.6 209.5,274.8 "/>
<polygon style="fill:#FEDC70;" points="209.7,354.8 209.9,354.7 209.9,272.4 209.7,273.6 "/>
<polygon style="fill:#FEDC6F;" points="209.9,354.7 209.9,354.7 210,354.7 210,271.2 209.9,272.4 "/>
<polygon style="fill:#FEDC6E;" points="210,354.7 210.2,354.6 210.2,269.9 210,271.2 "/>
<polygon style="fill:#FEDB6D;" points="210.2,354.6 210.4,354.5 210.4,268.7 210.2,269.9 "/>
<polygon style="fill:#FEDB6C;" points="210.4,354.5 210.4,354.5 210.5,354.5 210.5,354.4 210.5,267.5 210.4,268.7 "/>
<polygon style="fill:#FEDB6B;" points="210.5,354.4 210.7,354.4 210.7,266.2 210.5,267.5 "/>
<polygon style="fill:#FEDA6A;" points="210.7,354.4 210.9,354.3 210.9,265 210.7,266.2 "/>
<polygon style="fill:#FDDA69;" points="210.9,354.3 211,354.2 211,263.8 210.9,265 "/>
<polygon style="fill:#FDD968;" points="211,354.2 211.2,354.1 211.2,262.5 211,263.7 "/>
<polygon style="fill:#FDD967;" points="211.2,354.1 211.4,354.1 211.4,261.3 211.2,262.5 "/>
<polygon style="fill:#FDD966;" points="211.4,354.1 211.5,354 211.5,260.1 211.4,261.3 "/>
<polygon style="fill:#FDD865;" points="211.5,354 211.6,354 211.6,354 211.7,353.9 211.7,258.9 211.5,260.1 "/>
<polygon style="fill:#FDD864;" points="211.7,353.9 211.9,353.8 211.9,257.7 211.7,258.9 "/>
<polygon style="fill:#FDD863;" points="211.9,353.8 212,353.8 212,256.4 211.9,257.6 "/>
<polygon style="fill:#FDD762;" points="212,353.8 212.2,353.7 212.2,353.7 212.2,255.2 212,256.4 "/>
<polygon style="fill:#FDD761;" points="212.2,353.7 212.4,353.6 212.4,254.3 212.3,254.3 212.2,255.2 "/>
<polygon style="fill:#FDD760;" points="212.4,353.6 212.5,353.5 212.5,254.3 212.4,254.3 "/>
<polygon style="fill:#FDD65F;" points="212.5,353.5 212.7,353.5 212.7,254.3 212.5,254.3 "/>
<polygon style="fill:#FDD65E;" points="212.7,353.5 212.7,353.4 212.9,353.4 212.9,254.3 212.7,254.3 212.7,254.3 "/>
<polygon style="fill:#FDD65D;" points="212.9,353.4 213,353.3 213,254.3 212.9,254.3 "/>
<polygon style="fill:#FDD55C;" points="213,353.3 213.2,353.2 213.2,254.3 213,254.3 "/>
<polygon style="fill:#FDD55B;" points="213.2,353.2 213.3,353.2 213.3,353.2 213.9,352.9 214.4,352.7 214.4,352.7 214.5,352.7 
	214.5,254.3 214.4,254.3 214.4,254.3 213.9,254.3 213.9,254.3 213.4,254.3 213.3,254.3 213.3,254.3 213.2,254.3 "/>
<g>
	<polygon style="fill:#95B8E0;" points="272.9,302.8 362,302.8 376.4,197 287.3,197 	"/>
	<polygon style="fill:#95B8E0;" points="395,302.8 305.9,302.8 291.6,197 380.7,197 	"/>
</g>
<path style="fill:#507FD1;" d="M356.3,197h-2.5v-16.2c0-8-6.5-14.6-14.6-14.6h-11c-8,0-14.6,6.5-14.6,14.6V197h-2.5v-16.2
	c0-9.4,7.6-17,17-17h11c9.4,0,17,7.6,17,17V197H356.3z"/>
<polygon style="fill:#77A1D1;" points="272.9,302.8 289.5,295.3 289.5,302.8 "/>
<polygon style="fill:#89ADD6;" points="306,302.8 289.5,295.3 289.5,302.8 "/>
<polygon style="fill:#7EA7D6;" points="289.5,295.3 289.5,197 287.3,197 272.9,302.8 "/>
<g>
</g>
<g>
</g>
<g>
</g>
<g>
</g>
<g>
</g>
<g>
</g>
<g>
</g>
<g>
</g>
<g>
</g>
<g>
</g>
<g>
</g>
<g>
</g>
<g>
</g>
<g>
</g>
<g>
</g>
</svg>
