<?xml version="1.0" encoding="iso-8859-1"?>
<!-- Generator: Adobe Illustrator 19.0.0, SVG Export Plug-In . SVG Version: 6.00 Build 0)  -->
<svg version="1.1" id="Capa_1" xmlns="http://www.w3.org/2000/svg" xmlns:xlink="http://www.w3.org/1999/xlink" x="0px" y="0px"
	 viewBox="0 0 512 512" style="enable-background:new 0 0 512 512;" xml:space="preserve">
<path style="fill:#F8F8F8;" d="M254.601,499.005c-134.206,0.009-243.005-108.79-243.014-242.997S120.377,13.003,254.583,12.995
	s243.005,108.79,243.014,242.997V256C497.449,390.145,388.746,498.849,254.601,499.005z"/>
<g>
	<circle style="fill:#EEEEEE;" cx="254.592" cy="256" r="183.664"/>
	<path style="fill:#EEEEEE;" d="M2.564,17.21H0v-3.955h2.564c4.346,0,7.875-3.529,7.875-7.875l0,0V2.825h3.929V5.38
		C14.359,11.9,9.083,17.193,2.564,17.21z"/>
	<path style="fill:#EEEEEE;" d="M24.799,17.21h-2.529c-6.528-0.009-11.821-5.302-11.83-11.83V2.825h3.929V5.38
		c0.009,4.346,3.529,7.866,7.875,7.875h2.555V17.21z"/>
	<path style="fill:#EEEEEE;" d="M14.368,27.65h-3.929v-2.555c0-4.355-3.52-7.875-7.875-7.884H0v-3.955h2.564
		c6.519,0.026,11.795,5.32,11.804,11.839V27.65z"/>
	<path style="fill:#EEEEEE;" d="M14.368,27.65h-3.929v-2.555c0.009-6.536,5.293-11.83,11.83-11.839h2.529v3.955h-2.529
		c-4.346,0.009-7.866,3.538-7.875,7.884L14.368,27.65z"/>
</g>
<g>
	<path style="fill:#75B0F4;" d="M497.597,496.893c-3.138,0-6.145-1.252-8.362-3.477l-1.808-1.808l2.79-2.799l1.817,1.808
		c3.077,3.068,8.058,3.068,11.135,0l1.808-1.808l2.799,2.799l-1.808,1.808C503.751,495.641,500.735,496.893,497.597,496.893z"/>
	<path style="fill:#75B0F4;" d="M504.977,509.175l-1.808-1.808c-4.624-4.615-4.624-12.099-0.017-16.715
		c0.009-0.009,0.009-0.009,0.017-0.017l1.808-1.808l2.799,2.799l-1.808,1.808c-3.077,3.034-3.103,7.988-0.07,11.065
		c0.026,0.026,0.043,0.052,0.07,0.07l1.808,1.817L504.977,509.175z"/>
	<path style="fill:#75B0F4;" d="M490.218,509.175l-2.79-2.79l1.808-1.817c3.068-3.077,3.068-8.058,0-11.135l-1.808-1.808l2.79-2.799
		l1.817,1.808c4.607,4.624,4.607,12.108,0,16.732L490.218,509.175z"/>
	<path style="fill:#75B0F4;" d="M504.977,509.175l-1.808-1.808c-3.12-2.973-8.014-2.973-11.135,0l-1.817,1.808l-2.79-2.79
		l1.808-1.817c4.685-4.468,12.047-4.468,16.732,0l1.808,1.817L504.977,509.175z"/>
	<path style="fill:#75B0F4;" d="M100.846,442.098H98.29v-3.955h2.555c4.355,0,7.875-3.52,7.884-7.875v-2.608h3.955v2.608
		C112.676,436.805,107.382,442.089,100.846,442.098z"/>
	<path style="fill:#75B0F4;" d="M123.115,442.098h-2.555c-6.528-0.009-11.821-5.302-11.83-11.83v-2.608h3.955v2.608
		c0,4.346,3.529,7.875,7.875,7.875h2.555V442.098z"/>
	<path style="fill:#75B0F4;" d="M112.685,452.537h-3.955v-2.564c-0.009-4.346-3.538-7.866-7.884-7.875H98.29v-3.955h2.555
		c6.536,0.009,11.83,5.293,11.839,11.83C112.685,449.973,112.685,452.537,112.685,452.537z"/>
	<path style="fill:#75B0F4;" d="M112.685,452.537h-3.955v-2.564c0.009-6.528,5.302-11.821,11.83-11.83h2.555v3.955h-2.555
		c-4.346,0.009-7.866,3.529-7.875,7.875V452.537z"/>
</g>
<g>
	<path style="fill:#FFC335;" d="M429.051,376.725h-2.555v-3.955h2.555c4.346,0,7.875-3.529,7.875-7.875v-2.608h3.955v2.608
		C440.872,371.423,435.579,376.716,429.051,376.725z"/>
	<path style="fill:#FFC335;" d="M451.32,376.725h-2.608c-6.528-0.009-11.821-5.302-11.83-11.83v-2.608h3.955v2.608
		c0.009,4.346,3.529,7.866,7.875,7.875h2.608V376.725z"/>
	<path style="fill:#FFC335;" d="M440.881,387.164h-3.955v-2.521c0-4.355-3.52-7.875-7.875-7.884h-2.555v-3.955h2.555
		c6.536,0.009,11.821,5.302,11.83,11.839V387.164z"/>
	<path style="fill:#FFC335;" d="M440.881,387.164h-3.955v-2.521c0.009-6.536,5.293-11.83,11.83-11.839h2.608v3.955h-2.608
		c-4.346,0.009-7.866,3.538-7.875,7.884V387.164z"/>
	<path style="fill:#FFC335;" d="M414.37,208.193c-4.885,0-8.849-3.964-8.849-8.849s3.964-8.849,8.849-8.849
		c4.885,0,8.849,3.964,8.849,8.849C423.21,204.23,419.255,208.185,414.37,208.193z M414.37,194.451c-2.703,0-4.894,2.19-4.894,4.894
		s2.19,4.894,4.894,4.894s4.894-2.19,4.894-4.894l0,0c0.009-2.703-2.182-4.894-4.885-4.902h-0.009V194.451z"/>
</g>
<path style="fill:#75B0F4;" d="M272.924,424.279c-6.902,0-12.499-5.598-12.499-12.499s5.598-12.499,12.499-12.499
	c6.902,0,12.499,5.598,12.499,12.499l0,0C285.414,418.682,279.825,424.271,272.924,424.279z M272.924,403.236
	c-4.72,0-8.544,3.824-8.544,8.544s3.825,8.544,8.544,8.544c4.72,0,8.544-3.825,8.544-8.544S277.643,403.236,272.924,403.236
	L272.924,403.236z"/>
<g>
	<path style="fill:#FFC335;" d="M91.571,312.073c-4.885,0-8.849-3.964-8.849-8.849c0-4.885,3.964-8.849,8.849-8.849
		c4.885,0,8.849,3.964,8.849,8.849C100.411,308.109,96.456,312.064,91.571,312.073z M91.571,298.331
		c-2.703,0-4.894,2.19-4.894,4.894c0,2.703,2.19,4.894,4.894,4.894c2.703,0,4.894-2.19,4.894-4.894l0,0
		C96.456,300.521,94.275,298.339,91.571,298.331z"/>
	<path style="fill:#FFC335;" d="M247.725,41.374c-4.885,0-8.849-3.964-8.849-8.849s3.964-8.849,8.849-8.849s8.849,3.964,8.849,8.849
		l0,0C256.565,37.411,252.61,41.366,247.725,41.374z M247.725,27.632c-2.703,0-4.894,2.19-4.894,4.894s2.19,4.894,4.894,4.894
		s4.894-2.19,4.894-4.894l0,0C252.61,29.823,250.428,27.641,247.725,27.632z"/>
	<path style="fill:#FFC335;" d="M68.424,210.575c-2.547,0-4.963-1.147-6.571-3.12c-1.695-1.938-4.642-2.13-6.571-0.435
		c-0.156,0.13-0.296,0.278-0.435,0.435c-3.19,3.633-8.727,3.981-12.351,0.791c-0.278-0.243-0.539-0.513-0.791-0.791
		c-1.704-1.938-4.65-2.13-6.589-0.426c-0.148,0.13-0.296,0.278-0.426,0.426c-1.608,1.973-4.024,3.12-6.571,3.12l0,0
		c-2.547,0.009-4.963-1.139-6.571-3.12l3.068-2.503c0.852,1.052,2.13,1.66,3.477,1.669l0,0c1.347-0.009,2.625-0.617,3.477-1.669
		c3.19-3.633,8.727-3.981,12.351-0.791c0.278,0.243,0.539,0.513,0.791,0.791c1.704,1.938,4.65,2.13,6.589,0.426
		c0.148-0.13,0.296-0.278,0.426-0.426c3.19-3.633,8.727-3.981,12.351-0.791c0.278,0.243,0.539,0.513,0.791,0.791
		c1.686,1.938,4.624,2.13,6.563,0.443c0.156-0.139,0.304-0.287,0.443-0.443l3.068,2.503
		C73.344,209.419,70.954,210.566,68.424,210.575z"/>
</g>
<path style="fill:#75B0F4;" d="M505.472,43.765c-2.547,0.009-4.963-1.139-6.571-3.12c-1.704-1.938-4.65-2.121-6.589-0.417
	c-0.148,0.13-0.287,0.269-0.417,0.417c-1.608,1.982-4.024,3.129-6.571,3.12l0,0c-2.547,0.009-4.963-1.139-6.571-3.12
	c-1.712-1.938-4.668-2.121-6.597-0.417c-0.148,0.13-0.287,0.269-0.417,0.417c-3.19,3.633-8.709,3.99-12.343,0.8
	c-0.287-0.252-0.556-0.522-0.8-0.8l3.068-2.495c1.704,1.938,4.65,2.13,6.589,0.426c0.148-0.13,0.296-0.278,0.426-0.426
	c3.147-3.633,8.631-4.024,12.265-0.878c0.313,0.269,0.608,0.565,0.878,0.878c0.852,1.052,2.13,1.66,3.477,1.66l0,0
	c1.347,0,2.625-0.608,3.477-1.66c3.19-3.633,8.71-3.99,12.343-0.8c0.287,0.252,0.556,0.522,0.8,0.8
	c1.704,1.938,4.65,2.13,6.589,0.426c0.148-0.13,0.296-0.278,0.426-0.426L512,40.644C510.401,42.609,508.002,43.756,505.472,43.765z"
	/>
<path style="fill:#FFC335;" d="M331.917,456.909c-2.547,0.009-4.963-1.139-6.571-3.12c-1.695-1.938-4.633-2.138-6.571-0.443
	c-0.156,0.139-0.304,0.287-0.443,0.443c-3.19,3.633-8.727,3.981-12.352,0.791c-0.278-0.243-0.539-0.513-0.791-0.791
	c-1.704-1.938-4.65-2.13-6.589-0.426c-0.148,0.13-0.296,0.278-0.426,0.426c-3.19,3.633-8.727,3.981-12.352,0.791
	c-0.278-0.243-0.539-0.513-0.791-0.791l3.068-2.503c1.704,1.938,4.65,2.13,6.589,0.426c0.148-0.13,0.296-0.278,0.426-0.426
	c3.19-3.633,8.71-3.99,12.343-0.8c0.287,0.252,0.556,0.522,0.8,0.8c1.695,1.938,4.642,2.13,6.571,0.435
	c0.156-0.13,0.296-0.278,0.435-0.435c3.19-3.633,8.727-3.981,12.352-0.791c0.278,0.243,0.539,0.513,0.791,0.791
	c1.704,1.938,4.65,2.13,6.589,0.426c0.148-0.13,0.296-0.278,0.426-0.426l3.068,2.503
	C336.88,455.762,334.464,456.909,331.917,456.909z"/>
<g>
	<path style="fill:#75B0F4;" d="M127.6,158.553L127.6,158.553c-1.643,0-3.277-0.322-4.798-0.947l1.504-3.659
		c1.043,0.435,2.164,0.652,3.294,0.652V158.553z M132.442,157.579l-1.53-3.651c1.052-0.435,2.008-1.078,2.808-1.886l2.799,2.79
		C135.354,156.006,133.971,156.945,132.442,157.579z M118.673,154.893c-1.173-1.173-2.112-2.555-2.755-4.085l3.651-1.53
		c0.435,1.052,1.078,1.999,1.886,2.799L118.673,154.893z M139.256,150.739l-3.659-1.512c0.435-1.052,0.661-2.173,0.661-3.312
		l3.955-0.13v0.13C140.212,147.566,139.891,149.209,139.256,150.739z M114.918,145.975v-0.061c-0.009-1.634,0.304-3.251,0.921-4.763
		l3.668,1.486c-0.426,1.043-0.643,2.156-0.635,3.277L114.918,145.975z M135.545,142.498c-0.452-1.043-1.104-1.99-1.912-2.79
		l2.773-2.825c1.182,1.156,2.13,2.538,2.773,4.068L135.545,142.498z M121.368,139.821l-2.816-2.781
		c1.173-1.165,2.555-2.095,4.085-2.729l1.547,3.633c-1.043,0.443-1.999,1.078-2.799,1.877H121.368z M130.799,137.857
		c-1.026-0.417-2.13-0.626-3.242-0.626l-0.096-3.964h0.096c1.617,0,3.225,0.313,4.729,0.921L130.799,137.857z"/>
	<path style="fill:#75B0F4;" d="M425.088,458.935L425.088,458.935v-1.947l0.356,1.947H425.088z M425.088,458.935
		c-1.651,0.035-3.294-0.261-4.833-0.869l1.504-3.659c1.043,0.426,2.164,0.643,3.294,0.643L425.088,458.935z M429.92,457.996
		l-1.521-3.651c1.052-0.435,2.008-1.078,2.808-1.886l2.799,2.79c-1.173,1.173-2.573,2.112-4.111,2.747L429.92,457.996
		L429.92,457.996z M416.161,455.31c-1.182-1.165-2.121-2.555-2.764-4.085l3.651-1.53c0.443,1.052,1.087,1.999,1.895,2.799
		L416.161,455.31z M436.735,451.164l-3.651-1.521c0.435-1.052,0.652-2.173,0.652-3.312l3.955-0.13v0.156
		c-0.009,1.651-0.348,3.286-0.982,4.807L436.735,451.164L436.735,451.164z M412.684,446.357h-0.296
		c-0.009-1.651,0.304-3.286,0.93-4.815l3.659,1.495c-0.417,1.034-0.635,2.147-0.635,3.268L412.684,446.357z M433.015,442.88
		c-0.443-1.043-1.095-1.999-1.912-2.79l2.773-2.825c1.191,1.156,2.13,2.538,2.781,4.068L433.015,442.88z M418.847,440.195
		l-2.816-2.773c1.156-1.182,2.538-2.13,4.068-2.773l1.547,3.642c-1.06,0.461-2.008,1.139-2.799,1.982V440.195z M428.278,438.239
		c-1.034-0.417-2.138-0.626-3.251-0.626l-0.096-3.964h0.096c1.617,0,3.225,0.313,4.729,0.921L428.278,438.239z"/>
	<path style="fill:#75B0F4;" d="M425.062,106.982L425.062,106.982c-1.643,0-3.277-0.322-4.798-0.947l1.504-3.659
		c1.043,0.426,2.164,0.643,3.294,0.643L425.062,106.982z M429.894,106.009l-1.53-3.651c1.052-0.443,2.008-1.078,2.816-1.886
		l2.799,2.79C432.806,104.436,431.424,105.366,429.894,106.009z M416.135,103.314c-1.182-1.165-2.121-2.547-2.764-4.077l3.651-1.53
		c0.443,1.052,1.087,1.999,1.895,2.799L416.135,103.314z M436.709,99.168l-3.651-1.512c0.435-1.052,0.652-2.182,0.652-3.32
		l3.955-0.122v0.113C437.674,95.987,437.343,97.63,436.709,99.168z M412.684,94.396h-0.296c-0.009-1.651,0.304-3.286,0.93-4.815
		l3.659,1.486c-0.417,1.043-0.635,2.147-0.635,3.268L412.684,94.396z M433.023,90.919c-0.452-1.052-1.104-1.999-1.921-2.79
		l2.773-2.825c1.182,1.156,2.13,2.538,2.781,4.059L433.023,90.919z M418.847,88.242l-2.816-2.773
		c1.156-1.182,2.538-2.121,4.068-2.764l1.547,3.642C420.594,86.791,419.646,87.434,418.847,88.242z M428.278,86.287
		c-1.034-0.417-2.138-0.635-3.251-0.635l-0.096-3.955h0.096c1.617,0,3.225,0.313,4.729,0.913L428.278,86.287z"/>
</g>
<path style="fill:#FFC335;" d="M29.318,489.548L29.318,489.548c-1.643,0.009-3.268-0.313-4.789-0.939l1.495-3.659
	c1.043,0.426,2.164,0.643,3.294,0.643V489.548z M34.151,488.575l-1.521-3.651c1.052-0.435,2.008-1.078,2.808-1.886l2.799,2.799
	C37.063,487.01,35.681,487.94,34.151,488.575z M20.392,485.889c-1.182-1.165-2.121-2.555-2.755-4.085l3.685-1.547
	c0.443,1.052,1.087,1.999,1.895,2.799L20.392,485.889z M40.966,481.743l-3.651-1.486c0.435-1.052,0.652-2.173,0.652-3.312
	l3.955-0.165v0.122C41.922,478.561,41.6,480.204,40.966,481.743z M16.628,476.971v-0.061c0-1.634,0.313-3.251,0.93-4.763
	l3.659,1.495c-0.417,1.034-0.635,2.147-0.635,3.268L16.628,476.971z M37.254,473.494c-0.443-1.052-1.095-1.999-1.912-2.799
	l2.773-2.825c1.182,1.165,2.13,2.547,2.781,4.068L37.254,473.494z M23.086,470.808l-2.816-2.781
	c1.156-1.182,2.538-2.121,4.059-2.764l1.556,3.642c-1.043,0.443-1.99,1.095-2.781,1.912L23.086,470.808z M32.517,468.844
	c-1.034-0.417-2.138-0.626-3.251-0.626l-0.096-3.955h0.096c1.617,0,3.225,0.304,4.729,0.913L32.517,468.844z"/>
<g>
	<rect x="37.967" y="52.327" style="fill:#75B0F4;" width="3.955" height="18.705"/>
	<rect x="30.596" y="59.706" style="fill:#75B0F4;" width="18.705" height="3.955"/>
</g>
<g style="opacity:0.32;">
	<path style="fill:#2E58AE;" d="M246.534,162.125c0,0,1.13,0,11.639,0c22.174,0.33,39.879,18.566,39.558,40.731
		c-0.322,21.713-17.845,39.236-39.558,39.558h-11.091"/>
	<circle style="fill:#95B8E0;" cx="248.064" cy="202.239" r="40.14"/>
	<g>
		<path style="fill:#FFFFFF;" d="M249.637,222.448c-0.374,0-0.756-0.009-1.13-0.035c-2.712,0.087-5.867-0.469-8.814-1.582
			c-2.981-1.226-5.519-2.947-7.666-5.163l-3.199-3.312l7.388-6.363l2.851,3.042c1.2,1.278,2.634,2.269,4.268,2.938
			c1.643,0.617,3.503,0.991,5.389,0.904c2.312,0.104,4.381-0.365,6.171-1.382c0.513-0.322,0.895-1.069,0.852-1.851
			c0.009-0.852-0.087-1.313-0.287-1.73c-0.061-0.113-0.304-0.365-0.591-0.556c-0.748-0.487-1.582-0.878-2.451-1.121
			c-1.617-0.487-3.207-0.878-4.815-1.182c-2.069-0.382-3.894-0.808-5.493-1.243c-1.66-0.426-3.32-1.113-4.876-2.034
			c-1.643-0.982-2.999-2.373-3.92-4.033c-0.974-1.956-1.399-3.92-1.33-5.885c-0.043-1.808,0.4-3.877,1.278-5.737
			c0.904-1.825,2.199-3.39,3.772-4.572c1.678-1.217,3.468-2.06,5.389-2.555c2.008-0.522,4.077-0.721,6.18-0.748
			c2.416-0.096,4.885,0.356,7.267,1.226c2.512,1,4.659,2.521,6.345,4.45l2.625,2.999l-6.702,6.971l-3.112-3.616
			c-0.721-0.834-1.652-1.504-2.677-1.912c-1.052-0.365-2.295-0.513-3.651-0.548c-1.547-0.026-2.842,0.122-4.146,0.452
			c-0.704,0.183-1.356,0.504-1.93,0.947c-0.304,0.235-0.548,0.548-0.695,0.904c-0.191,0.469-0.304,1.087-0.296,1.686
			c-0.009,0.608,0.07,1,0.235,1.356c1.008,0.695,1.799,1.026,2.616,1.243c1.408,0.409,2.955,0.782,4.763,1.156
			c2.06,0.426,3.929,0.878,5.598,1.356c1.756,0.487,3.477,1.234,5.067,2.208c1.634,0.991,3.034,2.399,4.016,4.059
			c1.078,2.034,1.556,4.12,1.469,6.224c0.191,3.72-1.791,7.693-5.181,9.987C256.913,221.432,253.314,222.448,249.637,222.448z"/>
		<rect x="246.082" y="178.18" style="fill:#FFFFFF;" width="3.955" height="45.929"/>
	</g>
	<path style="fill:#2E58AE;" d="M279.982,190.879l-5.337,14.351c-1.599,4.277,13.412,13.812,33.525,21.296
		c20.114,7.484,37.698,10.1,39.288,5.824l5.346-14.351"/>
	
		<ellipse transform="matrix(-0.9371 -0.349 0.349 -0.9371 541.5305 506.4154)" style="fill:#95B8E0;" cx="316.385" cy="204.424" rx="38.853" ry="8.257"/>
	<path style="fill:#2E58AE;" d="M366.711,190.123c0,0-0.869,0-9.144,0c-17.384,0-31.552,17.967-31.552,40.14
		s14.125,40.14,31.552,40.14h8.692"/>
	<ellipse style="fill:#95B8E0;" cx="365.503" cy="230.237" rx="31.552" ry="40.14"/>
	<g>
		<path style="fill:#FFFFFF;" d="M364.121,250.42c-3.077,0-6.337-1.13-8.962-3.225c-3.025-2.816-4.476-6.458-4.233-10.222
			c-0.07-1.538,0.269-3.433,1.008-5.233c0.791-1.747,1.912-3.199,3.312-4.311c1.356-1.06,2.834-1.869,4.416-2.434
			c1.443-0.539,2.964-1.008,4.52-1.408c1.208-0.296,2.356-0.652,3.486-1.069c0.6-0.209,1.087-0.478,1.539-0.826
			c0.313-0.661,0.391-1.165,0.374-1.678c0.017-0.939-0.087-1.634-0.296-2.312c-0.104-0.304-0.296-0.626-0.539-0.869
			c-0.296-0.296-0.669-0.539-1.078-0.678c-0.782-0.243-1.634-0.409-2.547-0.356c-0.974-0.017-1.773,0.148-2.512,0.487
			c-0.461,0.261-1.087,0.843-1.556,1.538l-3.529,5.354l-5.354-7.701l1.191-3.138c1.295-1.947,3.077-3.546,5.146-4.642
			c2.243-1.052,4.416-1.495,6.719-1.469c2.034,0.087,3.52,0.269,5.25,0.843c1.747,0.591,3.303,1.521,4.633,2.79
			c1.347,1.313,2.356,2.834,3.007,4.563c0.687,1.843,1,3.729,0.965,5.641c0.052,1.617-0.252,3.399-0.904,5.094
			c-0.739,1.756-1.834,3.19-3.216,4.277c-1.321,1.017-2.755,1.782-4.303,2.286c-1.234,0.426-2.712,0.852-4.398,1.26
			c-1.208,0.287-2.382,0.661-3.546,1.104c-0.617,0.235-1.156,0.548-1.634,0.956c-0.574,1.043-0.669,1.634-0.652,2.234
			c-0.078,1.295,0.269,2.156,0.913,2.729c0.765,0.548,2.06,0.965,3.381,0.861c1.547,0.183,2.808-0.261,3.92-0.8
			c1.06-0.565,2.121-1.495,2.912-2.608l3.147-4.407l6.006,6.676l-1.565,3.494c-1.643,2.208-3.798,4.059-6.215,5.346
			c-2.599,1.269-5.32,1.817-8.04,1.817C364.634,250.411,364.373,250.42,364.121,250.42z"/>
		<rect x="363.539" y="206.177" style="fill:#FFFFFF;" width="3.955" height="45.929"/>
	</g>
	<path style="fill:#2E58AE;" d="M257.651,246.812v15.272c0,4.563,17.384,8.258,38.854,8.258s38.854-3.694,38.854-8.258v-15.272"/>
	<ellipse style="fill:#95B8E0;" cx="296.488" cy="246.812" rx="38.854" ry="8.258"/>
	<path style="fill:#2E58AE;" d="M163.359,211.67l1.599,15.229c0.478,4.537,18.167,6.389,39.506,4.146
		c21.339-2.243,38.245-7.753,37.776-12.282l-1.608-15.229"/>
	
		<ellipse transform="matrix(-0.1048 -0.9945 0.9945 -0.1048 16.7199 430.2739)" style="fill:#95B8E0;" cx="202.017" cy="207.612" rx="8.258" ry="38.854"/>
	<path style="fill:#2E58AE;" d="M295.436,222.857c0,0,0.53,0.713,5.215,7.493c9.944,14.316,3.242,36.168-14.968,48.815
		c-18.21,12.647-41.027,11.3-50.971-3.007l-4.963-7.154"/>
	
		<ellipse transform="matrix(-0.5706 -0.8213 0.8213 -0.5706 210.7864 603.6514)" style="fill:#95B8E0;" cx="263.218" cy="246.715" rx="31.554" ry="40.143"/>
	<g>
		<path style="fill:#FFFFFF;" d="M262.893,264.023l-3.599-0.13c-2.729-0.104-5.467-0.817-7.91-2.06
			c-2.503-1.382-4.572-3.286-6.084-5.572c-2.043-2.582-3.155-6.171-2.912-9.813c0.608-4.094,2.781-7.354,6.024-9.292
			c1.208-0.93,2.973-1.73,4.885-2.138c1.86-0.356,3.677-0.252,5.389,0.261c1.643,0.522,3.138,1.26,4.503,2.234
			c1.156,0.808,2.399,1.782,3.712,2.894c0.965,0.852,1.921,1.608,2.912,2.303c0.487,0.348,0.991,0.6,1.539,0.765
			c0.713-0.122,1.191-0.356,1.608-0.661c0.739-0.504,1.269-0.991,1.704-1.565c0.183-0.243,0.339-0.591,0.409-0.947
			c0.061-0.365,0.043-0.8-0.087-1.217c-0.243-0.8-0.643-1.608-1.165-2.321c-0.556-0.834-1.139-1.391-1.825-1.808
			c-0.461-0.217-1.278-0.435-2.104-0.374l-6.154,0.183l3.129-9.718l3.103-0.052c2.286,0.017,4.694,0.513,6.771,1.599
			c2.112,1.217,3.798,2.799,5.024,4.676c0.974,1.365,1.782,3.025,2.295,4.798c0.513,1.756,0.626,3.625,0.348,5.406
			c-0.287,1.808-0.991,3.564-2.051,5.076c-1.121,1.591-2.477,2.921-4.051,3.981c-1.304,0.965-2.947,1.73-4.702,2.173
			c-1.851,0.391-3.659,0.33-5.354-0.191c-1.608-0.522-3.051-1.269-4.346-2.243c-1.043-0.748-2.234-1.73-3.529-2.877
			c-0.913-0.808-1.895-1.565-2.921-2.243c-0.574-0.4-1.139-0.661-1.73-0.826c-1.2,0.165-1.721,0.409-2.19,0.756
			c-1.13,0.695-1.634,1.469-1.738,2.329c-0.017,0.939,0.4,2.225,1.2,3.251c0.887,1.304,1.825,2.173,2.894,2.773
			c1.087,0.548,2.451,0.895,3.816,0.904l5.38,0.07L262.893,264.023z"/>
		
			<rect x="239.843" y="242.61" transform="matrix(-0.8214 0.5703 -0.5703 -0.8214 618.1512 295.6224)" style="fill:#FFFFFF;" width="45.902" height="3.955"/>
	</g>
	<path style="fill:#2E58AE;" d="M168.071,264.266l6.371,13.907c1.895,4.155,19.253,0.287,38.767-8.64
		c19.514-8.927,33.795-19.522,31.9-23.669l-6.371-13.907"/>
	
		<ellipse transform="matrix(-0.4158 -0.9094 0.9094 -0.4158 62.3138 536.2383)" style="fill:#95B8E0;" cx="203.382" cy="248.106" rx="8.257" ry="38.852"/>
	<path style="fill:#2E58AE;" d="M213.548,198.345c0,0,0.53,0.713,5.215,7.493c9.944,14.307,3.242,36.168-14.968,48.815
		c-18.21,12.647-41.027,11.3-50.962-3.007l-4.972-7.154"/>
	
		<ellipse transform="matrix(-0.571 -0.821 0.821 -0.571 102.5943 497.7342)" style="fill:#95B8E0;" cx="181.351" cy="222.06" rx="31.554" ry="40.142"/>
	<g>
		<path style="fill:#FFFFFF;" d="M181.031,239.502l-3.625-0.13c-2.773-0.096-5.433-0.791-7.901-2.051
			c-2.521-1.399-4.572-3.294-6.084-5.563c-2.051-2.608-3.155-6.189-2.912-9.831c0.6-4.085,2.773-7.345,6.006-9.292
			c1.2-0.921,2.955-1.721,4.859-2.138c1.877-0.365,3.712-0.261,5.406,0.252c1.669,0.53,3.164,1.269,4.511,2.243
			c1.278,0.895,2.538,1.878,3.738,2.921c0.93,0.817,1.895,1.573,2.894,2.277c0.478,0.348,0.974,0.591,1.495,0.748
			c0.748-0.104,1.208-0.33,1.625-0.635c0.748-0.513,1.26-0.991,1.686-1.547c0.209-0.269,0.365-0.608,0.426-0.947
			c0.07-0.382,0.043-0.8-0.07-1.182c-0.261-0.861-0.652-1.643-1.165-2.356c-0.565-0.852-1.156-1.417-1.825-1.825
			c-0.478-0.226-1.365-0.53-2.13-0.391l-6.093,0.148l3.068-9.666l3.12-0.061c2.303-0.035,4.694,0.504,6.771,1.582
			c2.121,1.234,3.798,2.816,5.033,4.685c0.982,1.391,1.782,3.042,2.286,4.798c0.504,1.764,0.626,3.572,0.348,5.389
			c-0.304,1.851-1.008,3.607-2.051,5.111c-1.087,1.565-2.451,2.903-4.059,3.981c-1.304,0.974-2.955,1.738-4.729,2.173
			c-1.817,0.391-3.633,0.322-5.337-0.209c-1.573-0.504-3.025-1.252-4.32-2.234c-1.208-0.887-2.408-1.869-3.564-2.903
			c-0.878-0.765-1.86-1.53-2.894-2.216c-0.565-0.391-1.13-0.652-1.738-0.817c-1.191,0.156-1.721,0.417-2.208,0.765
			c-1.121,0.687-1.625,1.452-1.73,2.338c-0.009,0.913,0.409,2.19,1.217,3.225c0.887,1.304,1.825,2.173,2.912,2.79
			c1.069,0.548,2.434,0.887,3.807,0.904l5.328,0.078L181.031,239.502z"/>
		
			<rect x="158.193" y="218.076" transform="matrix(-0.8214 0.5704 -0.5704 -0.8214 455.4735 297.4713)" style="fill:#FFFFFF;" width="45.93" height="3.955"/>
	</g>
</g>
<path style="fill:#2E58AE;" d="M150.365,222.814c0,0,1.13,0,11.639,0c22.165,0,40.14,17.975,40.14,40.14s-17.975,40.14-40.14,40.14
	h-11.082"/>
<circle style="fill:#95B8E0;" cx="151.895" cy="262.936" r="40.14"/>
<g>
	<path style="fill:#FFFFFF;" d="M153.45,283.163c-0.374,0-0.756-0.009-1.13-0.035c-2.781,0.183-5.885-0.469-8.805-1.582
		c-2.955-1.208-5.493-2.921-7.658-5.146l-3.199-3.286l7.371-6.432l2.868,3.077c1.173,1.269,2.634,2.277,4.242,2.929
		c1.678,0.617,3.599,0.974,5.415,0.913c2.373,0.122,4.39-0.374,6.171-1.382c0.504-0.322,0.887-1.069,0.843-1.86
		c0.009-0.852-0.087-1.304-0.278-1.704c-0.078-0.139-0.322-0.409-0.608-0.6c-0.73-0.469-1.565-0.861-2.434-1.104
		c-1.625-0.495-3.225-0.887-4.833-1.191c-2.051-0.391-3.885-0.8-5.476-1.234c-1.66-0.426-3.329-1.113-4.876-2.034
		c-1.634-0.974-2.981-2.364-3.911-4.024c-0.974-1.964-1.399-3.938-1.33-5.893c-0.043-1.825,0.409-3.894,1.286-5.745
		c0.904-1.825,2.199-3.381,3.781-4.555c1.634-1.2,3.433-2.051,5.363-2.555c2.025-0.53,4.12-0.695,6.197-0.756
		c2.347-0.122,4.859,0.356,7.249,1.226c2.521,1.008,4.659,2.529,6.345,4.442l2.66,3.025l-6.754,6.936l-3.094-3.564
		c-0.73-0.843-1.66-1.504-2.703-1.93c-1.043-0.365-2.277-0.539-3.633-0.548c-1.556,0.026-2.86,0.13-4.164,0.461
		c-0.687,0.183-1.33,0.495-1.904,0.947c-0.322,0.243-0.556,0.548-0.713,0.904c-0.183,0.461-0.304,1.078-0.287,1.678
		c-0.009,0.608,0.061,1,0.235,1.356c1.017,0.687,1.808,1.026,2.616,1.234c1.408,0.409,2.955,0.791,4.746,1.156
		c2.06,0.417,3.938,0.887,5.624,1.365c1.756,0.487,3.468,1.234,5.068,2.208c1.617,0.982,3.007,2.373,3.998,4.033
		c1.087,2.06,1.565,4.155,1.478,6.25c0.191,3.729-1.799,7.701-5.189,9.979C160.726,282.155,157.136,283.163,153.45,283.163z"/>
	<rect x="149.913" y="238.859" style="fill:#FFFFFF;" width="3.955" height="45.929"/>
</g>
<path style="fill:#2E58AE;" d="M232.54,222.814c0,0,0.869,0,9.144,0c17.384,0,31.552,17.975,31.552,40.14
	s-14.125,40.14-31.552,40.14h-8.692"/>
<ellipse style="fill:#95B8E0;" cx="233.696" cy="262.936" rx="31.552" ry="40.14"/>
<g>
	<path style="fill:#FFFFFF;" d="M234.817,283.163c-0.287,0-0.574-0.009-0.869-0.026c-2.329,0.009-5.12-0.548-7.562-1.747
		c-2.59-1.382-4.685-3.173-6.354-5.406l-2.147-2.868l6.623-7.301l3.129,4.398c0.791,1.113,1.843,2.034,3.051,2.677
		c0.974,0.469,2.017,0.669,3.477,0.73c1.652,0.122,2.912-0.313,3.955-1.086c0.374-0.348,0.721-1.208,0.652-2.069
		c0-1.026-0.087-1.617-0.287-2.164c-0.052-0.13-0.235-0.374-0.461-0.565c-0.4-0.339-0.939-0.652-1.512-0.869
		c-1.208-0.461-2.416-0.834-3.633-1.139c-1.478-0.365-2.955-0.817-4.398-1.33c-1.434-0.478-2.86-1.226-4.146-2.19
		c-1.46-1.156-2.547-2.59-3.233-4.207c-0.704-1.834-1.008-3.625-0.956-5.441c-0.035-1.704,0.278-3.581,0.939-5.38
		c0.652-1.738,1.686-3.312,2.99-4.581c1.373-1.295,2.921-2.225,4.633-2.816c1.791-0.6,3.599-0.843,5.45-0.843
		c2.156-0.087,4.311,0.417,6.337,1.356c2.295,1.217,4.077,2.825,5.372,4.763l1.678,2.512l-5.971,8.292l-3.468-5.285
		c-0.452-0.695-1.078-1.26-1.799-1.652c-0.478-0.2-1.321-0.356-2.077-0.356c-1.113-0.026-1.947,0.113-2.799,0.382
		c-0.322,0.113-0.704,0.356-1.008,0.661c-0.235,0.243-0.435,0.565-0.548,0.913c-0.191,0.626-0.296,1.321-0.287,2.034
		c-0.017,0.721,0.07,1.243,0.243,1.712c0.591,0.548,1.078,0.808,1.582,0.982c1.2,0.443,2.373,0.8,3.555,1.095
		c1.721,0.452,3.242,0.921,4.598,1.426c1.512,0.548,2.973,1.347,4.311,2.373c1.452,1.165,2.573,2.608,3.294,4.216
		c0.791,1.895,1.139,3.851,1.078,5.78c0.235,3.338-1.217,6.988-3.981,9.579C241.415,282.016,238.155,283.163,234.817,283.163z"/>
	<rect x="231.714" y="238.859" style="fill:#FFFFFF;" width="3.955" height="45.929"/>
</g>
<path style="fill:#2E58AE;" d="M341.556,279.469v15.307c0,4.563-17.384,8.258-38.854,8.258s-38.854-3.694-38.854-8.258v-15.307"/>
<ellipse style="fill:#95B8E0;" cx="302.703" cy="279.538" rx="38.854" ry="8.258"/>
<path style="fill:#2E58AE;" d="M399.359,284.128l-6.363,13.907c-1.895,4.155-19.253,0.278-38.767-8.64
	c-19.514-8.918-33.795-19.488-31.9-23.66l6.363-13.907"/>
<ellipse transform="matrix(-0.9094 -0.4158 0.4158 -0.9094 583.6056 663.1002)" style="fill:#95B8E0;" cx="364.005" cy="268.004" rx="38.852" ry="8.257"/>
<g>
</g>
<g>
</g>
<g>
</g>
<g>
</g>
<g>
</g>
<g>
</g>
<g>
</g>
<g>
</g>
<g>
</g>
<g>
</g>
<g>
</g>
<g>
</g>
<g>
</g>
<g>
</g>
<g>
</g>
</svg>
