<svg xmlns="http://www.w3.org/2000/svg" xmlns:xlink="http://www.w3.org/1999/xlink" width="140" height="140" viewBox="0 0 140 140">
  <defs>
    <clipPath id="clip-path">
      <rect id="Rectangle_2" data-name="Rectangle 2" width="140" height="140" fill="#fff"/>
    </clipPath>
    <clipPath id="clip-path-2">
      <rect id="Rectangle_1" data-name="Rectangle 1" width="34" height="9" transform="translate(45 59)" fill="#fff"/>
    </clipPath>
  </defs>
  <g id="Group_3" data-name="Group 3" clip-path="url(#clip-path)">
    <path id="Path_4" data-name="Path 4" d="M69.615,136.14a66.447,66.447,0,1,1,66.444-66.449v0A66.522,66.522,0,0,1,69.615,136.14Z" fill="#f8f8f8"/>
    <path id="Path_5" data-name="Path 5" d="M69.615,119.914A50.221,50.221,0,1,0,19.394,69.693,50.22,50.22,0,0,0,69.615,119.914Z" fill="#eee"/>
    <path id="Path_6" data-name="Path 6" d="M.7,4.4H0V3.318H.7A2.154,2.154,0,0,0,2.852,1.165v-.7H3.926v.7A3.242,3.242,0,0,1,.7,4.4Z" fill="#eee"/>
    <path id="Path_7" data-name="Path 7" d="M6.779,4.4H6.087A3.239,3.239,0,0,1,2.852,1.165v-.7H3.926v.7A2.158,2.158,0,0,0,6.08,3.318h.7V4.4Z" fill="#eee"/>
    <path id="Path_8" data-name="Path 8" d="M3.926,7.254H2.852v-.7A2.154,2.154,0,0,0,.7,4.4H0V3.318H.7A3.242,3.242,0,0,1,3.926,6.555Z" fill="#eee"/>
    <path id="Path_9" data-name="Path 9" d="M3.926,7.254H2.852v-.7A3.239,3.239,0,0,1,6.087,3.318h.692V4.4H6.087A2.158,2.158,0,0,0,3.934,6.555Z" fill="#eee"/>
    <path id="Path_10" data-name="Path 10" d="M139.453,136.682h-.7a3.239,3.239,0,0,1-3.235-3.237v-.7H136.6v.7a2.155,2.155,0,0,0,2.154,2.153h.7Z" fill="#75b0f4"/>
    <path id="Path_11" data-name="Path 11" d="M136.6,139.534H135.52v-.7a3.239,3.239,0,0,1,3.234-3.237h.7v1.084h-.7a2.154,2.154,0,0,0-2.153,2.153Z" fill="#75b0f4"/>
    <path id="Path_12" data-name="Path 12" d="M133.366,136.682h-.713V135.6h.713a2.158,2.158,0,0,0,2.154-2.153v-.7H136.6v.7A3.238,3.238,0,0,1,133.366,136.682Z" fill="#75b0f4"/>
    <path id="Path_13" data-name="Path 13" d="M136.6,139.534H135.52v-.7a2.158,2.158,0,0,0-2.154-2.153h-.713V135.6h.713a3.239,3.239,0,0,1,3.235,3.237Z" fill="#75b0f4"/>
    <path id="Path_14" data-name="Path 14" d="M27.573,120.582h-.7V119.5h.7a2.154,2.154,0,0,0,2.153-2.153v-.7H30.81v.7A3.241,3.241,0,0,1,27.573,120.582Z" fill="#75b0f4"/>
    <path id="Path_15" data-name="Path 15" d="M33.662,120.582h-.7a3.241,3.241,0,0,1-3.237-3.237v-.7H30.81v.7a2.154,2.154,0,0,0,2.153,2.153h.7Z" fill="#75b0f4"/>
    <path id="Path_16" data-name="Path 16" d="M30.81,123.434H29.726v-.7a2.154,2.154,0,0,0-2.153-2.153h-.7V119.5h.7a3.242,3.242,0,0,1,3.237,3.237Z" fill="#75b0f4"/>
    <path id="Path_17" data-name="Path 17" d="M30.81,123.434H29.726v-.7a3.241,3.241,0,0,1,3.237-3.237h.7v1.084h-.7a2.154,2.154,0,0,0-2.153,2.153Z" fill="#75b0f4"/>
    <path id="Path_18" data-name="Path 18" d="M117.317,102.706H116.6v-1.084h.713a2.156,2.156,0,0,0,2.153-2.153v-.7h1.081v.7A3.239,3.239,0,0,1,117.317,102.706Z" fill="#ffc335"/>
    <path id="Path_19" data-name="Path 19" d="M123.406,102.706h-.714a3.239,3.239,0,0,1-3.222-3.234v-.7h1.081v.7a2.158,2.158,0,0,0,2.153,2.153h.714Z" fill="#ffc335"/>
    <path id="Path_20" data-name="Path 20" d="M120.551,105.559h-1.082v-.7a2.156,2.156,0,0,0-2.153-2.153H116.6v-1.084h.713a3.239,3.239,0,0,1,3.235,3.237Z" fill="#ffc335"/>
    <path id="Path_21" data-name="Path 21" d="M120.551,105.559H119.47v-.7a3.238,3.238,0,0,1,3.234-3.237h.714v1.084H122.7a2.158,2.158,0,0,0-2.153,2.153Z" fill="#ffc335"/>
    <path id="Path_22" data-name="Path 22" d="M113.3,56.619a2.42,2.42,0,1,1,2.42-2.42A2.421,2.421,0,0,1,113.3,56.619Zm0-3.758a1.338,1.338,0,1,0,1.336,1.34v0A1.343,1.343,0,0,0,113.3,52.861Z" fill="#ffc335"/>
    <path id="Path_23" data-name="Path 23" d="M74.625,115.707a3.417,3.417,0,1,1,3.418-3.417A3.418,3.418,0,0,1,74.625,115.707Zm0-5.752a2.336,2.336,0,1,0,2.336,2.337v0A2.336,2.336,0,0,0,74.625,109.955Z" fill="#75b0f4"/>
    <path id="Path_24" data-name="Path 24" d="M25.037,85.026a2.42,2.42,0,1,1,2.42-2.429,2.42,2.42,0,0,1-2.42,2.429Zm0-3.755a1.338,1.338,0,1,0,1.338,1.338v0A1.338,1.338,0,0,0,25.037,81.271Z" fill="#ffc335"/>
    <path id="Path_25" data-name="Path 25" d="M67.735,11.007a2.42,2.42,0,1,1,2.42-2.42A2.42,2.42,0,0,1,67.735,11.007Zm0-3.758a1.338,1.338,0,1,0,1.338,1.338,1.338,1.338,0,0,0-1.338-1.338Z" fill="#ffc335"/>
    <path id="Path_26" data-name="Path 26" d="M18.708,57.273a2.319,2.319,0,0,1-1.8-.853,1.279,1.279,0,0,0-1.8-.114,1.24,1.24,0,0,0-.114.114,2.392,2.392,0,0,1-3.594,0,1.276,1.276,0,0,0-1.8-.114,1.236,1.236,0,0,0-.114.114,2.392,2.392,0,0,1-3.594,0l.837-.68a1.279,1.279,0,0,0,1.8.114,1.237,1.237,0,0,0,.114-.114A2.378,2.378,0,0,1,12,55.49a2.441,2.441,0,0,1,.25.25,1.279,1.279,0,0,0,1.806.1,1.2,1.2,0,0,0,.1-.1A2.376,2.376,0,0,1,17.5,55.5a2.3,2.3,0,0,1,.24.24,1.279,1.279,0,0,0,1.8.114,1.226,1.226,0,0,0,.114-.114l.837.682A2.315,2.315,0,0,1,18.708,57.273Z" fill="#ffc335"/>
    <path id="Path_27" data-name="Path 27" d="M138.213,11.663a2.309,2.309,0,0,1-1.806-.844,1.273,1.273,0,0,0-1.8-.119,1.078,1.078,0,0,0-.119.119,2.392,2.392,0,0,1-3.377.216,2.517,2.517,0,0,1-.217-.216,1.275,1.275,0,0,0-1.8-.116,1.3,1.3,0,0,0-.117.116,2.392,2.392,0,0,1-3.377.216,2.668,2.668,0,0,1-.217-.216l.839-.684a1.273,1.273,0,0,0,1.8.119,1.077,1.077,0,0,0,.119-.119,2.39,2.39,0,0,1,3.375-.219,2.5,2.5,0,0,1,.219.219,1.275,1.275,0,0,0,1.8.116,1.3,1.3,0,0,0,.117-.116,2.39,2.39,0,0,1,3.375-.219,2.5,2.5,0,0,1,.219.219,1.275,1.275,0,0,0,1.8.116,1.3,1.3,0,0,0,.117-.116l.837.684A2.315,2.315,0,0,1,138.213,11.663Z" fill="#75b0f4"/>
    <path id="Path_28" data-name="Path 28" d="M90.756,124.629a2.3,2.3,0,0,1-1.8-.853,1.279,1.279,0,0,0-1.918,0,2.39,2.39,0,0,1-3.594,0,1.273,1.273,0,0,0-1.8-.119,1.144,1.144,0,0,0-.119.119,2.4,2.4,0,0,1-3.382.214,2.216,2.216,0,0,1-.214-.214l.839-.684a1.272,1.272,0,0,0,1.8.121,1.425,1.425,0,0,0,.121-.121,2.393,2.393,0,0,1,3.378-.216,2.563,2.563,0,0,1,.216.216,1.272,1.272,0,0,0,1.8.121,1.439,1.439,0,0,0,.121-.121,2.392,2.392,0,0,1,3.377-.216,2.562,2.562,0,0,1,.216.216,1.272,1.272,0,0,0,1.795.121,1.425,1.425,0,0,0,.121-.121l.839.684A2.315,2.315,0,0,1,90.756,124.629Z" fill="#ffc335"/>
    <path id="Path_29" data-name="Path 29" d="M34.888,43.048a3.456,3.456,0,0,1-1.312-.259l.411-1a2.34,2.34,0,0,0,.9.178Zm1.321-.266-.416-1a2.332,2.332,0,0,0,.768-.513l.765.763A3.425,3.425,0,0,1,36.209,42.782Zm-3.762-.735a3.433,3.433,0,0,1-.753-1.117l1-.418a2.369,2.369,0,0,0,.518.765Zm5.628-1.134-1-.413a2.377,2.377,0,0,0,.181-.908l.865-.026h.216A3.507,3.507,0,0,1,38.075,40.913Zm-6.655-1.3v-.017a3.492,3.492,0,0,1,.252-1.3l1,.406a2.367,2.367,0,0,0-.174.9Zm5.64-.951a2.423,2.423,0,0,0-.523-.765l.758-.772a3.492,3.492,0,0,1,.758,1.112Zm-3.876-.734-.77-.76a3.431,3.431,0,0,1,1.115-.756l.421,1a2.363,2.363,0,0,0-.76.523Zm2.581-.537a2.377,2.377,0,0,0-.889-.171l-.026-1.081h.026a3.446,3.446,0,0,1,1.293.25Z" fill="#75b0f4"/>
    <path id="Path_30" data-name="Path 30" d="M116.225,125.193a3.454,3.454,0,0,1-1.312-.257l.411-1a2.4,2.4,0,0,0,.9.175Zm1.322-.264-.419-1a2.4,2.4,0,0,0,.77-.516l.766.763A3.494,3.494,0,0,1,117.547,124.929Zm-3.763-.737a3.377,3.377,0,0,1-.753-1.114l1-.419a2.369,2.369,0,0,0,.518.766Zm5.626-1.133-1-.414a2.371,2.371,0,0,0,.179-.908l1.081-.033v.033A3.462,3.462,0,0,1,119.41,123.059Zm-6.655-1.305v-.017a3.477,3.477,0,0,1,.252-1.3l1,.406a2.4,2.4,0,0,0-.174.894Zm5.64-.951a2.322,2.322,0,0,0-.523-.765l.759-.773a3.5,3.5,0,0,1,.76,1.113Zm-3.876-.734-.77-.761a3.526,3.526,0,0,1,1.112-.756l.425,1a2.42,2.42,0,0,0-.763.523Zm2.581-.537a2.38,2.38,0,0,0-.889-.172l-.026-1.081h.026a3.424,3.424,0,0,1,1.293.238Z" fill="#75b0f4"/>
    <path id="Path_31" data-name="Path 31" d="M116.225,28.946a3.458,3.458,0,0,1-1.312-.259l.411-1a2.345,2.345,0,0,0,.9.178Zm1.322-.266-.419-1a2.37,2.37,0,0,0,.77-.516l.766.763A3.5,3.5,0,0,1,117.547,28.68Zm-3.765-.737a3.464,3.464,0,0,1-.754-1.115l1-.418a2.367,2.367,0,0,0,.518.765Zm5.628-1.131-1-.416a2.364,2.364,0,0,0,.179-.906l1.081-.033v.033A3.459,3.459,0,0,1,119.41,26.812Zm-6.655-1.3v-.017a3.439,3.439,0,0,1,.254-1.3l1,.406a2.416,2.416,0,0,0-.174.9Zm5.64-.951a2.335,2.335,0,0,0-.523-.765l.759-.772a3.5,3.5,0,0,1,.76,1.112Zm-3.874-.737-.77-.758a3.4,3.4,0,0,1,1.112-.758l.423,1a2.361,2.361,0,0,0-.76.523Zm2.579-.535a2.379,2.379,0,0,0-.889-.171l-.024-1.081h.024a3.437,3.437,0,0,1,1.293.238Z" fill="#75b0f4"/>
    <path id="Path_32" data-name="Path 32" d="M8.014,133.554A3.433,3.433,0,0,1,6.7,133.3l.411-1a2.393,2.393,0,0,0,.9.176Zm1.322-.264-.416-1a2.432,2.432,0,0,0,.768-.516l.765.763A3.481,3.481,0,0,1,9.336,133.29Zm-3.765-.736a3.441,3.441,0,0,1-.753-1.117l1.01-.419a2.372,2.372,0,0,0,.506.777ZM11.2,131.42l-1-.414a2.369,2.369,0,0,0,.178-.907l.86-.027h.221A3.413,3.413,0,0,1,11.2,131.42Zm-6.655-1.3V130.1a3.441,3.441,0,0,1,.254-1.3l1,.409a2.39,2.39,0,0,0-.174.893Zm5.64-.951a2.309,2.309,0,0,0-.523-.762l.758-.773a3.456,3.456,0,0,1,.76,1.11ZM6.31,128.43l-.77-.76a3.437,3.437,0,0,1,1.112-.756l.423,1a2.327,2.327,0,0,0-.76.522Zm2.579-.537A2.376,2.376,0,0,0,8,127.722l-.024-1.082H8a3.425,3.425,0,0,1,1.293.238Z" fill="#ffc335"/>
    <path id="Path_33" data-name="Path 33" d="M11.46,14H10.379v5.115H11.46Z" fill="#75b0f4"/>
    <path id="Path_34" data-name="Path 34" d="M13.478,16.019H8.364V17.1h5.115Z" fill="#75b0f4"/>
    <path id="Path_35" data-name="Path 35" d="M98.642,55.264H82.2V48.253H35.967V83.738H48.326a6.046,6.046,0,1,0,12.09.24c0-.081,0-.159,0-.24h29.31a6.046,6.046,0,0,0,12.09.24c0-.081,0-.159,0-.24h7.316a1.54,1.54,0,0,0,1.54-1.54V68.32Z" fill="#ddd"/>
    <path id="Path_36" data-name="Path 36" d="M92.341,83.738H84.814V55.264h16.445l12.024,13.051V82.193a1.54,1.54,0,0,1-1.54,1.54h-7.316" fill="#95b8e0"/>
    <path id="Path_37" data-name="Path 37" d="M87.436,69.344V58.354a.477.477,0,0,1,.475-.475H99.795a.722.722,0,0,1,.518.238l9.464,10.27a.57.57,0,0,1-.421.951Z" fill="#fff"/>
    <path id="Path_38" data-name="Path 38" d="M109.362,69.884H86.9V58.354a1.015,1.015,0,0,1,1.01-1.01H99.79a1.242,1.242,0,0,1,.918.4l9.462,10.27a1.11,1.11,0,0,1-.818,1.861ZM87.971,68.8h21.391L99.921,58.485a.167.167,0,0,0-.121-.052H87.916Z" fill="#2e58ae"/>
    <path id="Path_39" data-name="Path 39" d="M51.062,83.738H38.584V75.992h46.23v7.746H63.153" fill="#95b8e0"/>
    <path id="Path_40" data-name="Path 40" d="M84.815,48.253H38.584V75.992h46.23Z" fill="#2e58ae"/>
    <path id="Path_41" data-name="Path 41" d="M98.374,89.779a6.047,6.047,0,1,0-6.047-6.047A6.046,6.046,0,0,0,98.374,89.779Z" fill="#2e58ae"/>
    <path id="Path_42" data-name="Path 42" d="M98.383,87.381a3.644,3.644,0,1,1,3.641-3.646v0A3.647,3.647,0,0,1,98.383,87.381Z" fill="#ffce3c"/>
    <path id="Path_43" data-name="Path 43" d="M57,89.779a6.046,6.046,0,1,0-6.046-6.046A6.046,6.046,0,0,0,57,89.779Z" fill="#2e58ae"/>
    <path id="Path_44" data-name="Path 44" d="M57,87.381a3.644,3.644,0,1,1,3.641-3.646v0A3.648,3.648,0,0,1,57,87.381Z" fill="#ffce3c"/>
    <path id="Path_45" data-name="Path 45" d="M91.165,70.587H89.012v1.081h2.153Z" fill="#2e58ae"/>
    <path id="Path_46" data-name="Path 46" d="M88.208,70.587h-1.1v1.081h1.1Z" fill="#2e58ae"/>
    <g id="Group_2" data-name="Group 2" clip-path="url(#clip-path-2)">
      <path id="Path_47" data-name="Path 47" d="M56.457,66.2H55.59l.9-5.013h.869Zm.646-5.77a.446.446,0,0,1-.186-.04.451.451,0,0,1-.153-.114.651.651,0,0,1-.143-.459.911.911,0,0,1,.184-.587.534.534,0,0,1,.183-.165A.527.527,0,0,1,57.225,59a.446.446,0,0,1,.186.042.452.452,0,0,1,.153.116.66.66,0,0,1,.147.464.879.879,0,0,1-.186.58.547.547,0,0,1-.185.162A.537.537,0,0,1,57.1,60.429Z" fill="#9cc1da"/>
      <path id="Path_48" data-name="Path 48" d="M58.4,61.4a6.02,6.02,0,0,1,.656-.218,3.066,3.066,0,0,1,.808-.1,1.112,1.112,0,0,1,.969.431,1.947,1.947,0,0,1,.308,1.16,3.9,3.9,0,0,1-.025.427q-.025.229-.061.464L60.584,66.2h-.868l.444-2.511q.036-.211.072-.431a3.412,3.412,0,0,0,.043-.422,1.067,1.067,0,0,0-.113-.556.516.516,0,0,0-.491-.22,1.469,1.469,0,0,0-.531.086l-.72,4.055h-.883Z" fill="#9cc1da"/>
      <path id="Path_49" data-name="Path 49" d="M62.622,59.862l.9-.192-.274,1.515H64.48l-.172.959H63.073l-.359,1.984q-.035.211-.049.35t-.014.253a1.4,1.4,0,0,0,.018.229.481.481,0,0,0,.071.192.4.4,0,0,0,.158.134.633.633,0,0,0,.284.053,1.058,1.058,0,0,0,.373-.068,2.263,2.263,0,0,0,.315-.143l.064.93a2.381,2.381,0,0,1-.41.179,1.814,1.814,0,0,1-.589.086,1.025,1.025,0,0,1-.882-.359,1.62,1.62,0,0,1-.265-.983,4.617,4.617,0,0,1,.025-.475q.025-.244.076-.523Z" fill="#9cc1da"/>
      <path id="Path_50" data-name="Path 50" d="M69.567,63.716a3.559,3.559,0,0,1-.147,1.045,2.378,2.378,0,0,1-.429.825,1.956,1.956,0,0,1-.694.537,2.2,2.2,0,0,1-.94.191,2.249,2.249,0,0,1-.75-.115,2.349,2.349,0,0,1-.485-.22v1.993h-.878v-6.6q.312-.077.779-.167a5.7,5.7,0,0,1,1.081-.091,2.715,2.715,0,0,1,1.017.182,2.184,2.184,0,0,1,.774.517,2.3,2.3,0,0,1,.5.82A3.19,3.19,0,0,1,69.567,63.716Zm-.916,0a1.93,1.93,0,0,0-.425-1.341,1.467,1.467,0,0,0-.514-.36,1.45,1.45,0,0,0-.615-.11,5.119,5.119,0,0,0-.619.029,2.486,2.486,0,0,0-.354.066v3.144a1.793,1.793,0,0,0,.463.259,1.716,1.716,0,0,0,.661.125,1.394,1.394,0,0,0,.647-.139,1.191,1.191,0,0,0,.439-.383,1.635,1.635,0,0,0,.245-.573,3.208,3.208,0,0,0,.072-.717Z" fill="#fff"/>
      <path id="Path_51" data-name="Path 51" d="M72.2,61.089a2.509,2.509,0,0,1,.892.139,1.445,1.445,0,0,1,.585.393,1.5,1.5,0,0,1,.316.6,2.961,2.961,0,0,1,.095.772v3.112l-.316.053q-.2.033-.457.062t-.552.053q-.3.024-.59.024a3.187,3.187,0,0,1-.765-.086,1.7,1.7,0,0,1-.6-.273,1.247,1.247,0,0,1-.4-.494,1.751,1.751,0,0,1-.141-.738,1.439,1.439,0,0,1,.165-.71,1.33,1.33,0,0,1,.452-.479,2.061,2.061,0,0,1,.66-.264,3.549,3.549,0,0,1,.791-.086,2.589,2.589,0,0,1,.273.015q.141.015.269.038l.226.044.132.029v-.25a2.039,2.039,0,0,0-.047-.436,1.009,1.009,0,0,0-.17-.383.863.863,0,0,0-.339-.268,1.3,1.3,0,0,0-.552-.1,4.088,4.088,0,0,0-.76.062,2.645,2.645,0,0,0-.486.13l-.1-.738a2.681,2.681,0,0,1,.565-.149A4.819,4.819,0,0,1,72.2,61.089Zm.076,4.472q.312,0,.552-.015a2.377,2.377,0,0,0,.4-.053V64a1.115,1.115,0,0,0-.307-.081,3.375,3.375,0,0,0-.515-.033,3.28,3.28,0,0,0-.42.029,1.283,1.283,0,0,0-.406.115.871.871,0,0,0-.307.249.66.66,0,0,0-.123.417.72.72,0,0,0,.3.666,1.553,1.553,0,0,0,.822.193Z" fill="#fff"/>
      <path id="Path_52" data-name="Path 52" d="M74.657,67.129a1.652,1.652,0,0,0,.269.091,1.282,1.282,0,0,0,.325.044,1.265,1.265,0,0,0,.812-.236,2.026,2.026,0,0,0,.529-.762,26.721,26.721,0,0,1-1.109-2.439,21.384,21.384,0,0,1-.854-2.612h.944q.1.431.25.93t.325,1.025q.18.528.387,1.055t.431,1.017q.359-1.007.624-1.994t.506-2.032H79q-.339,1.409-.756,2.707t-.9,2.43a5.157,5.157,0,0,1-.392.743,2.236,2.236,0,0,1-.452.513,1.63,1.63,0,0,1-.553.3,2.324,2.324,0,0,1-.694.1,1.709,1.709,0,0,1-.217-.015c-.076-.009-.149-.023-.226-.038a1.6,1.6,0,0,1-.2-.053.944.944,0,0,1-.128-.048Z" fill="#fff"/>
      <path id="Path_53" data-name="Path 53" d="M47.824,64.8a5.762,5.762,0,0,0,1.058-1.368,1.053,1.053,0,0,1-.452.175A2.474,2.474,0,0,0,49,62.934c.041-.057.528-.868.531-.868-.339.156-.495.213-.495.213A4.647,4.647,0,0,1,49.9,61.19c-1.365.344-1.994,1.72-2.485,2.91-.073.179-.148.358-.238.529a3.208,3.208,0,0,1-2.158,1.554,6.75,6.75,0,0,0,1.168-.008,2.325,2.325,0,0,0,.7-.2,3.24,3.24,0,0,0,1.183-1.227A1.2,1.2,0,0,1,47.824,64.8Z" fill="#9cc1da"/>
      <path id="Path_54" data-name="Path 54" d="M47.182,64.63c.09-.171.165-.35.238-.529.491-1.19,1.122-2.569,2.485-2.91a2.307,2.307,0,0,0-1.847.465.56.56,0,0,1,.08-.358,2.252,2.252,0,0,0-1.027,1.261c-.113-.053-.09-.1-.067-.312a4.736,4.736,0,0,0-.429,1.445.5.5,0,0,1-.08-.316,13.222,13.222,0,0,0-.422,1.663c-.009.073-.071-.089-.071-.089a1.59,1.59,0,0,1-.024-.229,2.175,2.175,0,0,0-.237.422,3.077,3.077,0,0,1-.175.351,1.64,1.64,0,0,1-.609.688h.022A3.224,3.224,0,0,0,47.182,64.63Z" fill="#9cc1da"/>
      <path id="Path_55" data-name="Path 55" d="M50.782,64.8A5.762,5.762,0,0,0,51.84,63.43a1.053,1.053,0,0,1-.452.175,2.474,2.474,0,0,0,.574-.671c.041-.057.528-.868.531-.868-.331.156-.49.213-.49.213a4.647,4.647,0,0,1,.861-1.089c-1.364.344-1.994,1.72-2.485,2.91a5.36,5.36,0,0,1-.238.53,3.226,3.226,0,0,1-2.162,1.553,6.75,6.75,0,0,0,1.168-.008,2.325,2.325,0,0,0,.7-.2,3.24,3.24,0,0,0,1.183-1.227A1.2,1.2,0,0,1,50.782,64.8Z" fill="#9cc1da"/>
      <path id="Path_56" data-name="Path 56" d="M50.14,64.63c.09-.171.165-.35.238-.529.491-1.19,1.122-2.569,2.485-2.91a2.307,2.307,0,0,0-1.847.465.586.586,0,0,1,.082-.363,2.251,2.251,0,0,0-1.027,1.261c-.113-.053-.09-.1-.067-.312a4.736,4.736,0,0,0-.429,1.445.494.494,0,0,1-.08-.316,13.217,13.217,0,0,0-.422,1.663c-.009.073-.071-.089-.071-.089a1.59,1.59,0,0,1-.024-.229,2.186,2.186,0,0,0-.237.422,3.044,3.044,0,0,1-.175.351,1.64,1.64,0,0,1-.609.688h.02A3.2,3.2,0,0,0,50.14,64.63Z" fill="#9cc1da"/>
      <path id="Path_57" data-name="Path 57" d="M53.719,64.8a5.762,5.762,0,0,0,1.058-1.368,1.053,1.053,0,0,1-.452.175,2.473,2.473,0,0,0,.574-.671c.041-.057.527-.868.531-.868-.331.156-.49.213-.49.213A4.647,4.647,0,0,1,55.8,61.19c-1.364.344-1.994,1.72-2.485,2.91a5.654,5.654,0,0,1-.238.53,3.226,3.226,0,0,1-2.162,1.553,6.75,6.75,0,0,0,1.168-.008,2.324,2.324,0,0,0,.7-.2,3.239,3.239,0,0,0,1.183-1.227A1.2,1.2,0,0,1,53.719,64.8Z" fill="#9cc1da"/>
      <path id="Path_58" data-name="Path 58" d="M53.077,64.63c.09-.171.165-.35.238-.529.491-1.19,1.122-2.569,2.485-2.91a2.307,2.307,0,0,0-1.847.465.578.578,0,0,1,.082-.363,2.252,2.252,0,0,0-1.027,1.261c-.113-.053-.09-.1-.067-.312a4.739,4.739,0,0,0-.429,1.445.494.494,0,0,1-.08-.316,13.217,13.217,0,0,0-.422,1.663c-.009.073-.071-.089-.071-.089a1.59,1.59,0,0,1-.024-.229,2.186,2.186,0,0,0-.237.422,3.059,3.059,0,0,1-.175.351,1.641,1.641,0,0,1-.609.688h.02A3.2,3.2,0,0,0,53.077,64.63Z" fill="#9cc1da"/>
    </g>
  </g>
</svg>
