<?xml version="1.0" encoding="iso-8859-1"?>
<!-- Generator: Adobe Illustrator 19.0.0, SVG Export Plug-In . SVG Version: 6.00 Build 0)  -->
<svg version="1.1" id="Capa_1" xmlns="http://www.w3.org/2000/svg" xmlns:xlink="http://www.w3.org/1999/xlink" x="0px" y="0px"
	 viewBox="0 0 512 512" style="enable-background:new 0 0 512 512;" xml:space="preserve">
<path style="fill:#F8F8F8;" d="M254.592,497.884c-134.206,0.009-243.005-108.79-243.014-242.997
	C11.569,120.681,120.368,11.882,254.574,11.873c134.206-0.009,243.005,108.79,243.014,242.997c0,0.009,0,0.009,0,0.017
	C497.432,389.024,388.729,497.728,254.592,497.884z"/>
<g>
	<circle style="fill:#EEEEEE;" cx="254.592" cy="254.879" r="183.664"/>
	<path style="fill:#EEEEEE;" d="M2.555,16.098H0v-3.964h2.555c4.346,0,7.875-3.529,7.875-7.875l0,0V1.704h3.929v2.555
		C14.351,10.778,9.075,16.072,2.555,16.098z"/>
	<path style="fill:#EEEEEE;" d="M24.79,16.098H22.26c-6.536-0.009-11.821-5.302-11.83-11.839V1.704h3.929v2.555
		c0.009,4.346,3.529,7.866,7.875,7.875h2.555V16.098z"/>
	<path style="fill:#EEEEEE;" d="M14.359,26.528h-3.929v-2.555c0-4.346-3.529-7.875-7.875-7.875l0,0H0v-3.964h2.555
		c6.519,0.026,11.795,5.32,11.804,11.839C14.359,23.973,14.359,26.528,14.359,26.528z"/>
	<path style="fill:#EEEEEE;" d="M14.359,26.528h-3.929v-2.555c0.009-6.536,5.293-11.83,11.83-11.839h2.529v3.964H22.26
		c-4.346,0.009-7.866,3.529-7.875,7.875L14.359,26.528z"/>
</g>
<g>
	<path style="fill:#75B0F4;" d="M510.001,499.866h-2.555c-6.536-0.009-11.821-5.302-11.83-11.839v-2.555h3.955v2.555
		c0,4.346,3.529,7.875,7.875,7.875h2.555V499.866z"/>
	<path style="fill:#75B0F4;" d="M499.57,510.296h-3.955v-2.555c0.009-6.536,5.293-11.83,11.83-11.839h2.555v3.964h-2.555
		c-4.346,0-7.875,3.529-7.875,7.875L499.57,510.296z"/>
	<path style="fill:#75B0F4;" d="M487.74,499.866h-2.608v-3.964h2.608c4.346-0.009,7.866-3.529,7.875-7.875v-2.555h3.955v2.555
		C499.562,494.564,494.277,499.857,487.74,499.866z"/>
	<path style="fill:#75B0F4;" d="M499.57,510.296h-3.955v-2.555c-0.009-4.346-3.529-7.866-7.875-7.875h-2.608v-3.964h2.608
		c6.536,0.009,11.821,5.302,11.83,11.839V510.296z"/>
	<path style="fill:#75B0F4;" d="M100.837,440.985h-2.555v-3.964h2.555c4.346,0,7.875-3.529,7.875-7.875v-2.555h3.964v2.555
		C112.667,435.683,107.374,440.977,100.837,440.985z"/>
	<path style="fill:#75B0F4;" d="M123.106,440.985h-2.555c-6.536-0.009-11.83-5.302-11.839-11.839v-2.555h3.964v2.555
		c0,4.346,3.529,7.875,7.875,7.875h2.555V440.985z"/>
	<path style="fill:#75B0F4;" d="M112.676,451.416h-3.964v-2.555c0-4.346-3.529-7.875-7.875-7.875h-2.555v-3.964h2.555
		c6.536,0.009,11.83,5.302,11.839,11.839C112.676,448.86,112.676,451.416,112.676,451.416z"/>
	<path style="fill:#75B0F4;" d="M112.676,451.416h-3.964v-2.555c0.009-6.536,5.302-11.83,11.839-11.839h2.555v3.964h-2.555
		c-4.346,0-7.875,3.529-7.875,7.875C112.676,448.86,112.676,451.416,112.676,451.416z"/>
</g>
<g>
	<path style="fill:#FFC335;" d="M429.043,375.612h-2.608v-3.964h2.608c4.346-0.009,7.866-3.529,7.875-7.875v-2.555h3.955v2.564
		C440.864,370.31,435.57,375.603,429.043,375.612z"/>
	<path style="fill:#FFC335;" d="M451.312,375.612h-2.608c-6.51-0.035-11.778-5.32-11.786-11.83v-2.555h3.955v2.555
		c0.009,4.346,3.529,7.866,7.875,7.875h2.608L451.312,375.612z"/>
	<path style="fill:#FFC335;" d="M440.872,386.043h-3.955v-2.555c-0.009-4.346-3.529-7.866-7.875-7.875h-2.608v-3.964h2.608
		c6.536,0.009,11.821,5.302,11.83,11.839V386.043z"/>
	<path style="fill:#FFC335;" d="M440.872,386.043h-3.955v-2.555c0.009-6.536,5.294-11.83,11.83-11.839h2.608v3.964h-2.608
		c-4.346,0.009-7.866,3.529-7.875,7.875V386.043z"/>
	<path style="fill:#FFC335;" d="M414.362,207.063c-4.885,0-8.849-3.964-8.849-8.849s3.964-8.849,8.849-8.849
		c4.885,0,8.849,3.964,8.849,8.849C423.201,203.1,419.247,207.055,414.362,207.063z M414.362,193.321
		c-2.703-0.009-4.894,2.182-4.902,4.885c-0.009,2.703,2.182,4.894,4.885,4.902c2.703,0.009,4.894-2.182,4.902-4.885v-0.009
		C419.238,195.52,417.056,193.33,414.362,193.321z"/>
</g>
<path style="fill:#75B0F4;" d="M272.915,423.158c-6.902,0-12.499-5.598-12.499-12.499s5.598-12.499,12.499-12.499
	c6.902,0,12.499,5.598,12.499,12.499l0,0C285.405,417.56,279.816,423.149,272.915,423.158z M272.915,402.123
	c-4.72,0-8.544,3.825-8.544,8.544s3.825,8.544,8.544,8.544c4.72,0,8.544-3.824,8.544-8.544v-0.009
	C281.451,405.939,277.635,402.123,272.915,402.123z"/>
<g>
	<path style="fill:#FFC335;" d="M91.563,310.951c-4.885,0-8.849-3.964-8.849-8.849c0-4.885,3.964-8.849,8.849-8.849
		c4.876,0,8.831,3.938,8.849,8.814c0.017,4.894-3.938,8.866-8.831,8.883C91.571,310.951,91.571,310.951,91.563,310.951z
		 M91.563,297.218c-2.703,0-4.894,2.19-4.894,4.894c0,2.703,2.19,4.894,4.894,4.894c2.703,0,4.894-2.19,4.894-4.894v-0.009
		C96.448,299.4,94.266,297.218,91.563,297.218z"/>
	<path style="fill:#FFC335;" d="M247.716,40.253c-4.885,0-8.849-3.964-8.849-8.849s3.964-8.849,8.849-8.849
		c4.885,0,8.849,3.964,8.849,8.849C256.556,36.29,252.601,40.244,247.716,40.253z M247.716,26.511c-2.703,0-4.894,2.19-4.894,4.894
		s2.19,4.894,4.894,4.894c2.703,0,4.894-2.19,4.894-4.894l0,0c-0.017-2.695-2.199-4.868-4.894-4.876V26.511z"/>
	<path style="fill:#FFC335;" d="M68.416,209.454c-2.547,0-4.963-1.147-6.571-3.12c-1.712-1.938-4.668-2.121-6.597-0.417
		c-0.148,0.13-0.287,0.269-0.417,0.417c-3.19,3.633-8.709,3.99-12.343,0.8c-0.287-0.252-0.556-0.522-0.8-0.8
		c-1.704-1.938-4.65-2.121-6.589-0.417c-0.148,0.13-0.287,0.269-0.417,0.417c-3.19,3.633-8.709,3.99-12.343,0.8
		c-0.287-0.252-0.556-0.522-0.8-0.8l3.06-2.486c1.712,1.938,4.668,2.121,6.597,0.417c0.148-0.13,0.287-0.269,0.417-0.417
		c3.138-3.633,8.623-4.042,12.256-0.913c0.322,0.278,0.626,0.582,0.913,0.913c1.73,1.921,4.685,2.077,6.606,0.348
		c0.122-0.113,0.243-0.226,0.348-0.348c3.147-3.633,8.631-4.024,12.265-0.878c0.313,0.269,0.608,0.565,0.878,0.878
		c1.712,1.938,4.668,2.121,6.597,0.417c0.148-0.13,0.287-0.269,0.417-0.417l3.06,2.495
		C73.353,208.306,70.954,209.445,68.416,209.454z"/>
</g>
<path style="fill:#75B0F4;" d="M505.464,42.652c-2.555,0.026-4.981-1.113-6.606-3.086c-1.695-1.938-4.642-2.13-6.571-0.435
	c-0.156,0.13-0.296,0.278-0.435,0.435c-3.19,3.633-8.727,3.981-12.352,0.791c-0.278-0.243-0.539-0.513-0.791-0.791
	c-1.704-1.938-4.65-2.13-6.589-0.426c-0.148,0.13-0.296,0.278-0.426,0.426c-3.19,3.633-8.727,3.981-12.352,0.791
	c-0.278-0.243-0.539-0.513-0.791-0.791l3.068-2.503c1.695,1.938,4.642,2.13,6.571,0.435c0.156-0.13,0.296-0.278,0.435-0.435
	c3.19-3.633,8.71-3.99,12.343-0.8c0.287,0.252,0.556,0.522,0.8,0.8c1.704,1.938,4.65,2.13,6.589,0.426
	c0.148-0.13,0.296-0.278,0.426-0.426c3.19-3.633,8.709-3.99,12.343-0.8c0.287,0.252,0.556,0.522,0.8,0.8
	c1.704,1.938,4.65,2.13,6.589,0.426c0.148-0.13,0.296-0.278,0.426-0.426l3.06,2.503C510.392,41.522,507.993,42.652,505.464,42.652z"
	/>
<path style="fill:#FFC335;" d="M331.908,455.788c-2.547,0.009-4.963-1.139-6.571-3.12c-1.704-1.938-4.65-2.13-6.589-0.426
	c-0.148,0.13-0.296,0.278-0.426,0.426c-3.19,3.633-8.71,3.99-12.343,0.8c-0.287-0.252-0.556-0.522-0.8-0.8
	c-1.695-1.938-4.642-2.13-6.571-0.435c-0.156,0.13-0.296,0.278-0.435,0.435c-3.199,3.633-8.736,3.981-12.369,0.782
	c-0.278-0.243-0.539-0.504-0.782-0.782l3.068-2.503c1.695,1.938,4.633,2.138,6.571,0.443c0.156-0.139,0.304-0.287,0.443-0.443
	c3.19-3.633,8.727-3.981,12.352-0.791c0.278,0.243,0.539,0.513,0.791,0.791c1.695,1.938,4.633,2.138,6.571,0.443
	c0.156-0.139,0.304-0.287,0.443-0.443c3.19-3.633,8.727-3.981,12.351-0.791c0.278,0.243,0.539,0.513,0.791,0.791
	c1.686,1.938,4.624,2.13,6.563,0.443c0.156-0.139,0.304-0.287,0.443-0.443l3.068,2.503
	C336.871,454.641,334.455,455.788,331.908,455.788z"/>
<g>
	<path style="fill:#75B0F4;" d="M127.591,157.431L127.591,157.431c-1.643,0-3.277-0.322-4.798-0.947l1.504-3.659
		c1.043,0.435,2.164,0.652,3.294,0.652V157.431z M132.424,156.458l-1.521-3.651c1.052-0.435,2.008-1.069,2.808-1.877l2.799,2.79
		C135.345,154.893,133.954,155.823,132.424,156.458z M118.665,153.772c-1.182-1.165-2.112-2.555-2.755-4.085l3.642-1.53
		c0.443,1.052,1.087,1.999,1.895,2.799L118.665,153.772z M139.248,149.626l-3.659-1.512c0.435-1.052,0.661-2.182,0.661-3.32
		l3.164-0.096h0.791C140.212,146.384,139.891,148.061,139.248,149.626z M114.91,144.854v-0.061c0-1.634,0.313-3.251,0.921-4.763
		l3.668,1.486c-0.426,1.043-0.635,2.156-0.635,3.277L114.91,144.854z M135.536,141.377c-0.452-1.052-1.104-1.999-1.912-2.799
		l2.773-2.825c1.182,1.165,2.121,2.547,2.773,4.068L135.536,141.377z M121.359,138.691l-2.816-2.781
		c1.165-1.182,2.547-2.121,4.077-2.764l1.539,3.642c-1.043,0.452-1.99,1.095-2.781,1.912L121.359,138.691z M130.799,136.727
		c-1.034-0.417-2.138-0.626-3.251-0.626l-0.096-3.955h0.096c1.617,0,3.225,0.304,4.729,0.913L130.799,136.727z"/>
	<path style="fill:#75B0F4;" d="M425.053,457.848L425.053,457.848c-1.643,0-3.277-0.313-4.798-0.939l1.504-3.659
		c1.043,0.426,2.164,0.643,3.294,0.643L425.053,457.848z M429.886,456.883l-1.53-3.651c1.052-0.443,2.008-1.078,2.816-1.886
		l2.799,2.79C432.797,455.31,431.415,456.24,429.886,456.883z M416.126,454.189c-1.182-1.165-2.121-2.547-2.755-4.077l3.642-1.53
		c0.443,1.052,1.087,1.999,1.895,2.799L416.126,454.189z M436.7,450.043l-3.651-1.512c0.435-1.052,0.652-2.182,0.652-3.32
		l3.955-0.122v0.122C437.656,446.87,437.335,448.513,436.7,450.043z M412.362,445.271v-0.061c0-1.625,0.313-3.242,0.921-4.755
		l3.668,1.486c-0.417,1.034-0.635,2.147-0.635,3.268L412.362,445.271z M432.989,441.794c-0.443-1.052-1.095-1.999-1.912-2.799
		l2.773-2.825c1.182,1.165,2.13,2.547,2.781,4.068L432.989,441.794z M418.812,439.108l-2.816-2.781
		c1.165-1.173,2.547-2.112,4.068-2.764l1.556,3.642c-1.043,0.452-1.99,1.095-2.79,1.912L418.812,439.108z M428.252,437.144
		c-1.034-0.417-2.138-0.626-3.251-0.626l-0.096-3.955h0.096c1.617-0.017,3.225,0.278,4.729,0.869L428.252,437.144z"/>
	<path style="fill:#75B0F4;" d="M425.053,105.861L425.053,105.861c-1.643,0-3.277-0.322-4.798-0.947l1.504-3.659
		c1.043,0.435,2.164,0.652,3.294,0.652L425.053,105.861z M429.886,104.888l-1.53-3.651c1.052-0.435,2.008-1.078,2.816-1.886
		l2.799,2.79C432.797,103.314,431.415,104.244,429.886,104.888z M416.117,102.193c-1.173-1.165-2.112-2.547-2.755-4.077l3.651-1.53
		c0.443,1.052,1.087,1.999,1.895,2.799L416.117,102.193z M436.7,98.056l-3.651-1.521c0.435-1.052,0.652-2.173,0.652-3.312
		l3.955-0.122v0.122C437.656,94.883,437.335,96.526,436.7,98.056z M412.362,93.284v-0.061c0-1.634,0.313-3.251,0.93-4.763
		l3.659,1.486c-0.417,1.043-0.635,2.156-0.635,3.277L412.362,93.284z M432.989,89.807c-0.443-1.052-1.095-1.999-1.912-2.799
		l2.773-2.825c1.182,1.165,2.13,2.547,2.781,4.068L432.989,89.807z M418.821,87.112l-2.816-2.773
		c1.156-1.182,2.538-2.13,4.068-2.773l1.547,3.642c-1.043,0.452-1.99,1.095-2.781,1.912L418.821,87.112z M428.252,85.157
		c-1.034-0.417-2.138-0.626-3.251-0.626l-0.087-3.955h0.087c1.617-0.017,3.225,0.278,4.729,0.869L428.252,85.157z"/>
</g>
<path style="fill:#FFC335;" d="M29.31,488.427L29.31,488.427c-1.643,0-3.277-0.313-4.798-0.939l1.504-3.659
	c1.043,0.426,2.164,0.643,3.294,0.643V488.427z M34.143,487.462l-1.521-3.651c1.052-0.443,1.999-1.087,2.808-1.886l2.799,2.79
	C37.054,485.889,35.672,486.819,34.143,487.462z M20.374,484.768c-1.182-1.165-2.112-2.555-2.755-4.085l3.694-1.53
	c0.426,1.06,1.052,2.025,1.851,2.842L20.374,484.768z M40.957,480.621l-3.651-1.512c0.435-1.052,0.652-2.182,0.652-3.32l3.147-0.096
	h0.808C41.931,477.379,41.609,479.057,40.957,480.621z M16.619,475.849v-0.061c0-1.634,0.313-3.251,0.93-4.763l3.659,1.495
	c-0.417,1.034-0.635,2.147-0.635,3.268L16.619,475.849z M37.246,472.373c-0.443-1.052-1.095-1.999-1.912-2.79l2.773-2.825
	c1.182,1.156,2.13,2.538,2.781,4.059L37.246,472.373z M23.078,469.687l-2.816-2.781c1.165-1.182,2.547-2.121,4.068-2.764
	l1.547,3.642c-1.043,0.443-1.99,1.095-2.781,1.912L23.078,469.687z M32.508,467.722c-1.034-0.417-2.138-0.626-3.251-0.626
	l-0.087-3.955h0.087c1.617-0.017,3.225,0.278,4.729,0.869L32.508,467.722z"/>
<g>
	<rect x="37.958" y="51.214" style="fill:#75B0F4;" width="3.955" height="18.705"/>
	<rect x="30.588" y="58.585" style="fill:#75B0F4;" width="18.705" height="3.955"/>
</g>
<path style="fill:#DDDDDD;" d="M360.749,202.109h-60.141v-25.642h-169.07V306.24h45.199c-0.243,12.212,9.457,22.304,21.669,22.547
	s22.304-9.457,22.547-21.669c0.009-0.296,0.009-0.582,0-0.878h107.191c-0.243,12.212,9.457,22.304,21.669,22.547
	s22.304-9.457,22.547-21.669c0.009-0.296,0.009-0.582,0-0.878h26.754c3.112,0,5.632-2.521,5.632-5.632v-50.753L360.749,202.109z"/>
<path style="fill:#95B8E0;" d="M337.706,306.24h-27.528V202.109h60.141l43.973,47.728v50.753c0,3.112-2.521,5.632-5.632,5.632
	h-26.754"/>
<path style="fill:#FFFFFF;" d="M319.765,253.601v-40.192c0-0.956,0.782-1.738,1.738-1.738l0,0h43.461
	c0.721,0.017,1.408,0.33,1.895,0.869l34.612,37.559c0.765,0.861,0.695,2.182-0.165,2.947c-0.382,0.339-0.869,0.53-1.373,0.53
	L319.765,253.601z"/>
<path style="fill:#2E58AE;" d="M399.95,255.574h-82.158v-42.165c0.009-2.034,1.66-3.685,3.694-3.694h43.461
	c1.278,0,2.495,0.53,3.355,1.469l34.603,37.559c1.521,1.652,1.408,4.216-0.243,5.737c-0.747,0.687-1.73,1.069-2.747,1.069
	L399.95,255.574z M321.721,251.619h78.229l-34.525-37.732c-0.113-0.122-0.278-0.191-0.443-0.191h-43.461L321.721,251.619z"/>
<polyline style="fill:#95B8E0;" points="186.741,306.24 141.108,306.24 141.108,277.913 310.178,277.913 310.178,306.24 
	230.958,306.24 "/>
<g>
	<rect x="141.108" y="176.467" style="fill:#2E58AE;" width="169.07" height="101.446"/>
	<circle style="fill:#2E58AE;" cx="359.766" cy="306.223" r="22.113"/>
</g>
<path style="fill:#FFCE3C;" d="M359.801,319.565c-7.362,0.009-13.325-5.954-13.334-13.316c-0.009-7.362,5.954-13.325,13.316-13.334
	c7.362-0.009,13.325,5.954,13.334,13.316v0.009C373.109,313.594,367.155,319.548,359.801,319.565z"/>
<circle style="fill:#2E58AE;" cx="208.463" cy="306.223" r="22.113"/>
<g>
	<path style="fill:#FFCE3C;" d="M208.463,319.565c-7.362,0.009-13.325-5.954-13.334-13.316c-0.009-7.362,5.954-13.325,13.316-13.334
		c7.362-0.009,13.325,5.954,13.334,13.316v0.009C221.77,313.594,215.816,319.548,208.463,319.565z"/>
	<path style="fill:#FFCE3C;" d="M179.875,203.161h15.889v3.19h-12.082v9.805h11.161v3.155h-11.161v13.342h-3.807V203.161z"/>
	<path style="fill:#FFCE3C;" d="M201.24,203.552c2.408-0.426,4.85-0.635,7.301-0.608c3.042-0.313,6.093,0.548,8.536,2.399
		c1.539,1.452,2.39,3.494,2.321,5.606c0.043,3.477-2.234,6.545-5.563,7.527v0.148c2.408,1.06,4.068,3.338,4.346,5.954
		c0.513,2.764,1.278,5.467,2.277,8.092h-3.946c-0.878-2.277-1.53-4.633-1.964-7.041c-0.869-4.068-2.451-5.606-5.911-5.737h-3.59
		v12.777h-3.807V203.552z M205.038,216.99h3.903c4.068,0,6.649-2.234,6.649-5.598c0-3.816-2.755-5.476-6.78-5.52
		c-1.269-0.035-2.529,0.078-3.772,0.348L205.038,216.99z"/>
	<path style="fill:#FFCE3C;" d="M240.033,218.824h-11.465v10.639h12.777v3.19h-16.585v-29.492h15.924v3.19h-12.117v9.327h11.465
		L240.033,218.824L240.033,218.824z"/>
	<path style="fill:#FFCE3C;" d="M261.572,218.824h-11.465v10.639h12.777v3.19H246.3v-29.492h15.933v3.19h-12.126v9.327h11.465
		L261.572,218.824L261.572,218.824z"/>
</g>
<g>
	<rect x="325.528" y="258.147" style="fill:#2E58AE;" width="7.875" height="3.955"/>
	<rect x="318.566" y="258.147" style="fill:#2E58AE;" width="4.024" height="3.955"/>
</g>
<g>
</g>
<g>
</g>
<g>
</g>
<g>
</g>
<g>
</g>
<g>
</g>
<g>
</g>
<g>
</g>
<g>
</g>
<g>
</g>
<g>
</g>
<g>
</g>
<g>
</g>
<g>
</g>
<g>
</g>
</svg>
