<?xml version="1.0" encoding="iso-8859-1"?>
<!-- Generator: Adobe Illustrator 19.0.0, SVG Export Plug-In . SVG Version: 6.00 Build 0)  -->
<svg version="1.1" id="Capa_1" xmlns="http://www.w3.org/2000/svg" xmlns:xlink="http://www.w3.org/1999/xlink" x="0px" y="0px"
	 viewBox="0 0 512 512" style="enable-background:new 0 0 512 512;" xml:space="preserve">
<path style="fill:#F8F8F8;" d="M254.575,498.989c-134.197,0.009-242.989-108.783-242.997-242.98
	C11.568,121.812,120.36,13.02,254.557,13.011s242.989,108.783,242.998,242.98V256C497.407,390.136,388.711,498.832,254.575,498.989z
	"/>
<g>
	<circle style="fill:#EEEEEE;" cx="254.575" cy="256" r="183.652"/>
	<path style="fill:#EEEEEE;" d="M2.555,17.227H0v-3.955h2.555c4.346,0,7.875-3.529,7.875-7.875l0,0V2.842h3.929v2.555
		C14.35,11.916,9.074,17.209,2.555,17.227z"/>
	<path style="fill:#EEEEEE;" d="M24.788,17.227h-2.529c-6.527-0.009-11.82-5.302-11.829-11.829V2.842h3.929v2.555
		c0.009,4.346,3.529,7.866,7.875,7.875h2.555V17.227z"/>
	<path style="fill:#EEEEEE;" d="M14.358,27.665H10.43v-2.564c-0.009-4.346-3.529-7.866-7.875-7.875H0v-3.955h2.555
		c6.519,0.017,11.794,5.311,11.803,11.829C14.358,25.101,14.358,27.665,14.358,27.665z"/>
	<path style="fill:#EEEEEE;" d="M14.358,27.665H10.43v-2.564c0.009-6.527,5.302-11.82,11.829-11.829h2.529v3.955h-2.529
		c-4.346,0.009-7.866,3.529-7.875,7.875L14.358,27.665z"/>
</g>
<g>
	<path style="fill:#75B0F4;" d="M497.555,496.885c-3.138,0-6.154-1.252-8.361-3.477l-1.808-1.808l2.799-2.799l1.808,1.808
		c3.12,2.972,8.014,2.972,11.134,0l1.808-1.808l2.799,2.799l-1.808,1.808C503.708,495.643,500.701,496.894,497.555,496.885z"/>
	<path style="fill:#75B0F4;" d="M504.934,509.158l-1.808-1.808c-4.615-4.624-4.615-12.107,0-16.731l1.808-1.808l2.799,2.799
		l-1.808,1.808c-3.068,3.077-3.068,8.057,0,11.134l1.808,1.817L504.934,509.158z"/>
	<path style="fill:#75B0F4;" d="M490.184,509.158l-2.799-2.79l1.808-1.817c3.068-3.077,3.068-8.057,0-11.134l-1.808-1.808
		l2.799-2.799l1.808,1.808c4.607,4.624,4.607,12.107,0,16.731L490.184,509.158z"/>
	<path style="fill:#75B0F4;" d="M504.934,509.158l-1.808-1.808c-3.077-3.068-8.057-3.068-11.134,0l-1.808,1.808l-2.799-2.79
		l1.808-1.817c4.624-4.607,12.107-4.607,16.731,0l1.808,1.817L504.934,509.158z"/>
	<path style="fill:#75B0F4;" d="M100.83,442.085h-2.555v-3.955h2.555c4.354,0,7.875-3.52,7.883-7.875v-2.555h3.955v2.555
		C112.659,436.792,107.366,442.077,100.83,442.085z"/>
	<path style="fill:#75B0F4;" d="M123.098,442.085h-2.555c-6.527-0.009-11.82-5.302-11.829-11.829v-2.555h3.955v2.555
		c0,4.346,3.529,7.875,7.875,7.875h2.555V442.085z"/>
	<path style="fill:#75B0F4;" d="M112.668,452.524h-3.955v-2.564c-0.009-4.346-3.537-7.866-7.883-7.874h-2.555v-3.955h2.555
		c6.536,0.009,11.829,5.293,11.838,11.829C112.668,449.96,112.668,452.524,112.668,452.524z"/>
	<path style="fill:#75B0F4;" d="M112.668,452.524h-3.955v-2.564c0.009-6.527,5.302-11.82,11.829-11.829h2.555v3.955h-2.555
		c-4.346,0.009-7.866,3.529-7.875,7.874V452.524z"/>
</g>
<g>
	<path style="fill:#FFC335;" d="M429.013,376.716h-2.607v-3.955h2.607c4.346,0,7.875-3.529,7.875-7.875v-2.555h3.955v2.555
		C440.834,371.415,435.541,376.708,429.013,376.716z"/>
	<path style="fill:#FFC335;" d="M451.281,376.716h-2.555c-6.536-0.009-11.829-5.293-11.838-11.829v-2.555h3.955v2.555
		c0.009,4.354,3.529,7.875,7.883,7.875h2.555L451.281,376.716z"/>
	<path style="fill:#FFC335;" d="M440.843,387.155h-3.955v-2.607c-0.009-4.346-3.529-7.866-7.875-7.875h-2.607v-3.955h2.607
		c6.536,0.009,11.838,5.311,11.829,11.847c0,0.026,0,0.043,0,0.07V387.155z"/>
	<path style="fill:#FFC335;" d="M440.843,387.155h-3.955v-2.607c0.009-6.536,5.302-11.82,11.838-11.829h2.555v3.955h-2.555
		c-4.346,0.009-7.874,3.529-7.883,7.875L440.843,387.155z"/>
	<path style="fill:#FFC335;" d="M414.333,208.197c-4.885,0-8.848-3.963-8.848-8.848c0-4.885,3.963-8.848,8.848-8.848
		s8.848,3.963,8.848,8.848C423.173,204.233,419.218,208.188,414.333,208.197z M414.333,194.455c-2.703,0-4.893,2.19-4.893,4.893
		s2.19,4.893,4.893,4.893s4.893-2.19,4.893-4.893l0,0c0.009-2.703-2.182-4.893-4.885-4.902h-0.009V194.455z"/>
</g>
<path style="fill:#75B0F4;" d="M272.896,424.268c-6.901,0-12.498-5.597-12.498-12.498s5.597-12.498,12.498-12.498
	c6.901,0,12.498,5.597,12.498,12.498l0,0C285.386,418.67,279.797,424.259,272.896,424.268z M272.896,403.226
	c-4.719,0-8.544,3.824-8.544,8.544s3.824,8.544,8.544,8.544c4.72,0,8.544-3.824,8.544-8.544
	C281.431,407.05,277.616,403.234,272.896,403.226z"/>
<g>
	<path style="fill:#FFC335;" d="M91.556,312.069c-4.885,0-8.848-3.963-8.848-8.848s3.963-8.848,8.848-8.848s8.848,3.963,8.848,8.848
		C100.396,308.106,96.441,312.06,91.556,312.069z M91.556,298.328c-2.703,0-4.893,2.19-4.893,4.893s2.19,4.893,4.893,4.893
		c2.703,0,4.893-2.19,4.893-4.893l0,0C96.441,300.518,94.26,298.336,91.556,298.328z"/>
	<path style="fill:#FFC335;" d="M247.7,41.389c-4.885,0-8.848-3.963-8.848-8.848s3.963-8.848,8.848-8.848
		c4.885,0,8.848,3.963,8.848,8.848l0,0C256.539,37.426,252.584,41.38,247.7,41.389z M247.7,27.648c-2.703,0-4.893,2.19-4.893,4.893
		c0,2.703,2.19,4.893,4.893,4.893c2.703,0,4.893-2.19,4.893-4.893l0,0C252.584,29.838,250.403,27.656,247.7,27.648z"/>
	<path style="fill:#FFC335;" d="M68.411,210.578c-2.547,0-4.963-1.147-6.571-3.12c-1.704-1.938-4.65-2.121-6.588-0.417
		c-0.148,0.13-0.287,0.269-0.417,0.417c-3.19,3.633-8.709,3.989-12.342,0.8c-0.287-0.252-0.556-0.521-0.8-0.8
		c-1.712-1.938-4.667-2.121-6.597-0.417c-0.148,0.13-0.287,0.269-0.417,0.417c-3.19,3.633-8.726,3.981-12.351,0.791
		c-0.278-0.243-0.539-0.513-0.791-0.791l3.059-2.503c1.704,1.938,4.65,2.129,6.588,0.426c0.148-0.13,0.296-0.278,0.426-0.426
		c3.19-3.633,8.709-3.989,12.342-0.8c0.287,0.252,0.556,0.521,0.8,0.8c1.704,1.938,4.65,2.129,6.588,0.426
		c0.148-0.13,0.296-0.278,0.426-0.426c3.19-3.633,8.726-3.981,12.351-0.791c0.278,0.243,0.539,0.513,0.791,0.791
		c1.704,1.938,4.65,2.129,6.588,0.426c0.148-0.13,0.296-0.278,0.426-0.426l3.059,2.503
		C73.374,209.431,70.958,210.578,68.411,210.578z"/>
</g>
<path style="fill:#75B0F4;" d="M505.429,43.779c-2.547,0.009-4.963-1.139-6.562-3.12c-1.712-1.938-4.667-2.121-6.597-0.417
	c-0.148,0.13-0.287,0.269-0.417,0.417c-3.146,3.633-8.631,4.024-12.264,0.878c-0.313-0.269-0.608-0.565-0.878-0.878
	c-1.704-1.938-4.65-2.121-6.588-0.417c-0.148,0.13-0.287,0.269-0.417,0.417c-3.146,3.633-8.631,4.024-12.264,0.878
	c-0.313-0.269-0.608-0.565-0.878-0.878l3.059-2.494c1.712,1.938,4.667,2.121,6.597,0.417c0.148-0.13,0.287-0.269,0.417-0.417
	c3.146-3.633,8.631-4.024,12.264-0.878c0.313,0.269,0.608,0.565,0.878,0.878c1.704,1.938,4.65,2.121,6.588,0.417
	c0.148-0.13,0.287-0.269,0.417-0.417c3.19-3.633,8.709-3.989,12.342-0.8c0.287,0.252,0.556,0.521,0.8,0.8
	c1.712,1.938,4.667,2.121,6.597,0.417c0.148-0.13,0.287-0.269,0.417-0.417L512,40.659C510.392,42.641,507.976,43.788,505.429,43.779
	z"/>
<path style="fill:#FFC335;" d="M331.886,456.896c-2.547,0.009-4.963-1.139-6.571-3.12c-1.695-1.938-4.633-2.138-6.571-0.443
	c-0.156,0.139-0.304,0.287-0.443,0.443c-3.19,3.633-8.726,3.981-12.351,0.791c-0.278-0.243-0.539-0.513-0.791-0.791
	c-1.686-1.938-4.624-2.129-6.562-0.443c-0.156,0.139-0.304,0.287-0.443,0.443c-3.19,3.633-8.726,3.981-12.351,0.791
	c-0.278-0.243-0.539-0.513-0.791-0.791l3.059-2.503c1.712,1.938,4.667,2.121,6.597,0.417c0.148-0.13,0.287-0.269,0.417-0.417
	c3.19-3.633,8.709-3.989,12.342-0.8c0.287,0.252,0.556,0.522,0.8,0.8c1.704,1.938,4.65,2.121,6.588,0.417
	c0.148-0.13,0.287-0.269,0.417-0.417c3.19-3.633,8.718-3.989,12.351-0.8c0.287,0.252,0.548,0.513,0.8,0.8
	c1.704,1.938,4.65,2.121,6.588,0.417c0.148-0.13,0.287-0.269,0.417-0.417l3.068,2.503
	C336.849,455.748,334.432,456.896,331.886,456.896z"/>
<g>
	<path style="fill:#75B0F4;" d="M127.583,158.559L127.583,158.559c-1.643,0-3.277-0.322-4.798-0.947l1.504-3.659
		c1.043,0.426,2.164,0.652,3.294,0.652V158.559z M132.424,157.586l-1.53-3.65c1.052-0.443,1.999-1.078,2.807-1.886l2.799,2.79
		C135.336,156.013,133.954,156.951,132.424,157.586z M118.657,154.892c-1.173-1.165-2.112-2.547-2.755-4.076l3.65-1.53
		c0.435,1.052,1.078,1.999,1.886,2.799L118.657,154.892z M139.238,150.746l-3.659-1.512c0.435-1.052,0.661-2.173,0.661-3.311
		l3.955-0.13v0.13C140.194,147.573,139.873,149.216,139.238,150.746z M114.902,145.983v-0.061c0-1.634,0.313-3.251,0.921-4.763
		l3.668,1.486c-0.426,1.043-0.643,2.156-0.634,3.277L114.902,145.983z M135.527,142.506c-0.452-1.043-1.104-1.99-1.912-2.79
		l2.773-2.825c1.182,1.165,2.121,2.547,2.773,4.068L135.527,142.506z M121.351,139.82l-2.816-2.781
		c1.173-1.165,2.564-2.086,4.094-2.72l1.538,3.642c-1.043,0.435-1.999,1.06-2.799,1.86H121.351z M130.79,137.865
		c-1.034-0.417-2.138-0.634-3.251-0.634l-0.096-3.955h0.096c1.617,0,3.225,0.313,4.728,0.913L130.79,137.865z"/>
	<path style="fill:#75B0F4;" d="M425.05,458.921L425.05,458.921v-1.947l0.356,1.938L425.05,458.921z M425.05,458.921
		c-1.651,0.017-3.294-0.287-4.832-0.913l1.504-3.65c1.043,0.426,2.164,0.643,3.294,0.643L425.05,458.921z M429.883,457.982
		l-1.521-3.65c1.052-0.443,1.999-1.086,2.807-1.886l2.799,2.79c-1.173,1.173-2.573,2.112-4.111,2.747L429.883,457.982
		L429.883,457.982z M416.124,455.296c-1.182-1.165-2.112-2.555-2.755-4.085l3.642-1.53c0.443,1.052,1.086,1.999,1.895,2.799
		L416.124,455.296z M436.697,451.142l-3.65-1.512c0.435-1.052,0.652-2.173,0.652-3.311l3.172-0.104h0.782
		c0.009,1.695-0.322,3.372-0.982,4.928H436.697z M412.647,446.344h-0.296c-0.009-1.651,0.304-3.285,0.93-4.815l3.659,1.495
		c-0.417,1.034-0.634,2.147-0.634,3.268L412.647,446.344z M432.977,442.868c-0.443-1.052-1.095-1.999-1.912-2.79l2.773-2.825
		c1.182,1.165,2.129,2.547,2.781,4.068L432.977,442.868z M418.81,440.182l-2.816-2.773c1.156-1.182,2.538-2.129,4.068-2.773
		l1.547,3.65c-1.052,0.469-2.008,1.139-2.799,1.973V440.182z M428.24,438.226c-1.034-0.417-2.138-0.626-3.251-0.626l-0.087-3.955
		h0.087c1.617,0,3.225,0.304,4.728,0.913L428.24,438.226z"/>
	<path style="fill:#75B0F4;" d="M425.024,106.984L425.024,106.984c-1.643,0-3.277-0.313-4.798-0.939l1.504-3.659
		c1.043,0.426,2.164,0.643,3.294,0.643L425.024,106.984z M429.856,106.019l-1.521-3.65c1.052-0.435,2.008-1.078,2.807-1.886
		l2.799,2.79C432.777,104.455,431.386,105.385,429.856,106.019z M416.089,103.325c-1.173-1.165-2.112-2.547-2.755-4.076l3.65-1.53
		c0.443,1.052,1.086,1.999,1.895,2.799L416.089,103.325z M436.671,99.179l-3.65-1.512c0.435-1.052,0.652-2.182,0.652-3.32
		l3.172-0.096h0.782C437.644,95.937,437.322,97.614,436.671,99.179z M412.334,94.407v-0.07c0-1.634,0.313-3.251,0.93-4.763
		l3.668,1.495c-0.426,1.034-0.643,2.147-0.643,3.268L412.334,94.407z M432.959,90.931c-0.443-1.043-1.095-1.999-1.903-2.79
		l2.764-2.825c1.191,1.156,2.129,2.538,2.781,4.068L432.959,90.931z M418.792,88.245l-2.816-2.773
		c1.156-1.182,2.538-2.129,4.068-2.773l1.547,3.642c-1.043,0.452-1.99,1.104-2.781,1.912L418.792,88.245z M428.222,86.289
		c-1.034-0.417-2.138-0.634-3.251-0.634l-0.087-3.955h0.087c1.617,0,3.225,0.313,4.728,0.921L428.222,86.289z"/>
</g>
<path style="fill:#FFC335;" d="M29.308,489.532L29.308,489.532c-1.643,0-3.277-0.322-4.798-0.947l1.512-3.659
	c1.043,0.435,2.155,0.652,3.285,0.652V489.532z M34.14,488.559l-1.521-3.65c1.052-0.435,2.008-1.078,2.807-1.886l2.799,2.799
	C37.052,486.994,35.67,487.924,34.14,488.559z M20.382,485.873c-1.182-1.165-2.112-2.555-2.755-4.085l3.685-1.547
	c0.443,1.052,1.086,1.999,1.895,2.799L20.382,485.873z M40.954,481.727l-3.65-1.486c0.435-1.052,0.652-2.173,0.652-3.311
	l3.955-0.165v0.122C41.919,478.546,41.589,480.198,40.954,481.727z M16.618,476.956v-0.061c0-1.634,0.313-3.251,0.93-4.763
	l3.668,1.486c-0.426,1.043-0.643,2.156-0.643,3.277L16.618,476.956z M37.243,473.479c-0.443-1.052-1.095-1.999-1.903-2.799
	l2.764-2.825c1.182,1.165,2.129,2.547,2.781,4.068L37.243,473.479z M23.076,470.785l-2.816-2.773
	c1.156-1.182,2.538-2.129,4.068-2.773l1.547,3.642c-1.043,0.452-1.982,1.104-2.781,1.912L23.076,470.785z M32.506,468.829
	c-1.034-0.417-2.138-0.626-3.251-0.626l-0.087-3.955h0.087c1.617,0,3.225,0.304,4.728,0.913L32.506,468.829z"/>
<g>
	<rect x="37.956" y="52.323" style="fill:#75B0F4;" width="3.955" height="18.704"/>
	<rect x="30.585" y="59.711" style="fill:#75B0F4;" width="18.704" height="3.955"/>
</g>
<path style="fill:#DDDDDD;" d="M343.063,208.466c3.616-5.884,1.773-13.594-4.111-17.209l-115.276-70.758
	c-5.884-3.616-13.594-1.773-17.209,4.111l-7.266,11.829l0,0l-6.023,9.813l-28.899,47.091c-3.616,5.884-1.773,13.585,4.111,17.201
	c0,0,0.009,0,0.009,0.009l22.772,13.976l11.551,1.095h-32.072v142.671h134.44c11.899,0,21.546-9.648,21.546-21.546v-99.579
	c0-3.494-0.852-6.927-2.477-10.021l1.225,0.122L343.063,208.466z"/>
<path style="fill:#2E58AE;" d="M203.764,224.528l-22.772-13.976c-5.893-3.607-7.735-11.308-4.128-17.201c0,0,0-0.009,0.009-0.009
	l42.189-68.733c3.616-5.884,11.325-7.727,17.209-4.111l115.319,70.758c5.893,3.607,7.735,11.308,4.128,17.201
	c0,0,0,0.009-0.009,0.009l-17.679,28.804"/>
<polygon style="fill:#02C88B;" points="337.987,237.27 201.296,153.553 211.804,136.439 348.408,220.295 "/>
<g>
	
		<rect x="226.877" y="166.878" transform="matrix(-0.5231 0.8523 -0.8523 -0.5231 519.3255 103.0543)" style="fill:#FFCD3C;" width="7.909" height="59.881"/>
	
		<rect x="212.186" y="182.615" transform="matrix(-0.5231 0.8523 -0.8523 -0.5231 502.5291 125.5395)" style="fill:#FFCD3C;" width="7.909" height="41.512"/>
</g>
<path style="fill:#7CABFB;" d="M317.692,368.294H183.243V225.623h134.449c11.899,0,21.546,9.648,21.546,21.546v99.579
	C339.239,358.647,329.591,368.294,317.692,368.294z"/>
<g>
	<rect x="183.217" y="234.845" style="fill:#FFCD3C;" width="5.936" height="3.955"/>
	<path style="fill:#FFCD3C;" d="M307.167,359.099h-11.794v-3.955h11.794V359.099z M283.578,359.099h-11.786v-3.955h11.786V359.099z
		 M259.998,359.099h-11.794v-3.955h11.794V359.099z M236.409,359.099h-11.786v-3.955h11.786V359.099z M212.829,359.099h-11.794
		v-3.955h11.794V359.099z M319.196,359.012l-0.478-3.929c3.233-0.417,5.936-2.651,6.953-5.754l3.763,1.217
		C327.948,355.109,323.959,358.412,319.196,359.012z M330.043,338.196h-3.955v-11.794h3.955V338.196z M330.043,314.616h-3.955
		v-11.794h3.955V314.616z M330.043,291.027h-3.955v-11.794h3.955V291.027z M330.043,267.447h-3.955v-11.794h3.955V267.447z
		 M325.697,244.536c-1.034-3.103-3.763-5.319-7.005-5.71l0.452-3.929c4.772,0.565,8.787,3.833,10.308,8.396L325.697,244.536z
		 M307.124,238.765h-11.812v-3.955h11.786L307.124,238.765z M283.543,238.765h-11.82v-3.955h11.794L283.543,238.765z
		 M259.955,238.765H248.16v-3.955h11.786L259.955,238.765z M236.375,238.765h-11.82v-3.955h11.794L236.375,238.765z
		 M212.786,238.765h-11.812v-3.955h11.786L212.786,238.765z"/>
	<rect x="183.217" y="355.144" style="fill:#FFCD3C;" width="5.936" height="3.955"/>
</g>
<path style="fill:#507FD1;" d="M339.23,309.609h-61.127c-7.11,0-12.881-5.771-12.881-12.881v-3.833
	c0-7.11,5.771-12.881,12.881-12.881h61.127V309.609z"/>
<circle style="fill:#FFCE3C;" cx="285.638" cy="294.816" r="7.536"/>
<g>
</g>
<g>
</g>
<g>
</g>
<g>
</g>
<g>
</g>
<g>
</g>
<g>
</g>
<g>
</g>
<g>
</g>
<g>
</g>
<g>
</g>
<g>
</g>
<g>
</g>
<g>
</g>
<g>
</g>
</svg>
