<svg xmlns="http://www.w3.org/2000/svg" width="244.825" height="49.592" viewBox="0 0 244.825 49.592">
  <g id="Group_1" data-name="Group 1" transform="translate(-0.041 -0.121)">
    <path id="Path_1" data-name="Path 1" d="M.693,4.836A7.773,7.773,0,0,1,7.67.123H75.148a7.752,7.752,0,0,1,5.344,2.008,7.86,7.86,0,0,1,2.529,5.9V34.016a7.77,7.77,0,0,1-7.3,7.5c-8.2.041-16.4,0-24.6,0,1.1,2.746,2.2,5.451,3.3,8.2-4.9-2.7-9.71-5.492-14.646-8.156-10.77-.082-21.582,0-32.393-.041a7.8,7.8,0,0,1-7.3-7.5c-.041-8.484,0-16.967-.041-25.41A9.2,9.2,0,0,1,.693,4.836Z" fill="#945c87" fill-rule="evenodd"/>
    <path id="Path_2" data-name="Path 2" d="M33.658,5.451a2.983,2.983,0,0,1,4.528.615,2.807,2.807,0,0,1,.122,2.664,39.722,39.722,0,0,0-3.1,10.984,71.959,71.959,0,0,0-1.183,14.8,2.9,2.9,0,0,1-1.877,3.115,3.61,3.61,0,0,1-3.264-1.475c-3.672-3.975-5.752-9.1-7.262-14.221-1.51,2.992-3.019,6.025-4.488,9.016a21.631,21.631,0,0,1-3.753,5.779c-.694.7-1.877,1.312-2.774.615-1.346-1.189-1.673-3.074-2.244-4.672A198.779,198.779,0,0,1,3.713,9.713a2.882,2.882,0,0,1,1.509-3.32,3.237,3.237,0,0,1,3.223.328,3.472,3.472,0,0,1,.9,2.172c.9,5.984,1.917,11.926,3.386,17.787,2.448-4.672,4.9-9.344,7.344-14.057a4.553,4.553,0,0,1,1.469-1.8,2.4,2.4,0,0,1,2.978.287,4.885,4.885,0,0,1,1.02,2.459,64.1,64.1,0,0,0,3.141,11.352c.612-5.533,1.387-11.148,3.386-16.352A11.8,11.8,0,0,1,33.658,5.451Zm13.83,2.992a8.5,8.5,0,0,1,7.3,2.582,11.4,11.4,0,0,1,2.57,6.025,18.665,18.665,0,0,1-2.04,10.984,12.037,12.037,0,0,1-4.2,4.836,8.594,8.594,0,0,1-9.057-.287,10.027,10.027,0,0,1-3.794-6.393c-.979-5.615.694-11.844,4.9-15.738A7.975,7.975,0,0,1,47.488,8.443Zm.53,5.738a5.839,5.839,0,0,0-2.774,2.664,10.187,10.187,0,0,0-.816,9.426,2.848,2.848,0,0,0,1.877,1.8,3.233,3.233,0,0,0,2.57-1.024,9.443,9.443,0,0,0,2.733-5.369,9.226,9.226,0,0,0-1.1-6.721A2.288,2.288,0,0,0,48.019,14.18ZM68.662,8.443a8.475,8.475,0,0,1,7.18,2.418,11.14,11.14,0,0,1,2.733,6.475,18.6,18.6,0,0,1-2,10.574,12.067,12.067,0,0,1-4.325,4.959,8.645,8.645,0,0,1-8.731-.123,9.089,9.089,0,0,1-3.631-4.8,17.744,17.744,0,0,1,3.957-17.172A9.02,9.02,0,0,1,68.662,8.443Zm.571,5.738c-1.387.492-2.2,1.844-2.937,3.033a10.094,10.094,0,0,0-.53,9.221,2.491,2.491,0,0,0,2,1.639,3.85,3.85,0,0,0,2.652-1.311,9.676,9.676,0,0,0,2.529-5.943,8.611,8.611,0,0,0-1.265-5.9A2.253,2.253,0,0,0,69.233,14.18Z" fill="#fff" fill-rule="evenodd"/>
    <path id="Path_3" data-name="Path 3" d="M96.975,9.221a15.477,15.477,0,0,1,6.854.082v5.533c-1.836-.451-3.916-.861-5.671,0a6.484,6.484,0,0,0-3.3,5.779c-.122,2.3.653,4.877,2.693,6.189,1.877,1.23,4.284.984,6.324.41v5.533a13.563,13.563,0,0,1-8.363-.287A11.26,11.26,0,0,1,88.816,25.2a15.41,15.41,0,0,1-.245-7.7A11.315,11.315,0,0,1,96.975,9.221Zm16.564-.287a10.941,10.941,0,0,1,8.037,1.885,10.9,10.9,0,0,1,3.631,7.049A20.33,20.33,0,0,1,124.6,26.6a9.506,9.506,0,0,1-4.651,5.7,11.638,11.638,0,0,1-7.547.615,8.477,8.477,0,0,1-5.467-4.139c-1.591-2.787-1.877-6.107-1.754-9.262a12.479,12.479,0,0,1,2.611-7.623A9.043,9.043,0,0,1,113.539,8.934Zm.857,5.287a3.339,3.339,0,0,0-2.162,2.582,20.894,20.894,0,0,0-.327,6.762,6.356,6.356,0,0,0,1.143,3.525,3.022,3.022,0,0,0,4.487-.2,5.732,5.732,0,0,0,1.02-3.033,20.471,20.471,0,0,0,0-5.7,6.064,6.064,0,0,0-1.346-3.2A2.975,2.975,0,0,0,114.4,14.221ZM223.2,9.3a15.915,15.915,0,0,1,7.221-.041c.04,1.844,0,3.689.04,5.574-1.795-.451-3.794-.861-5.548-.082a6.318,6.318,0,0,0-3.427,5.287c-.245,2.459.408,5.246,2.57,6.68,1.877,1.312,4.325,1.066,6.4.451-.04,1.844.041,3.729-.04,5.574a13.808,13.808,0,0,1-8.813-.533,11.25,11.25,0,0,1-6.242-7.3,15.4,15.4,0,0,1-.122-7.582A11.216,11.216,0,0,1,223.2,9.3Zm-94.365.164h7.874c.938,4.262,1.836,8.566,2.652,12.869.734-4.344,1.754-8.606,2.774-12.869h8.078q1.591,11.619,3.1,23.2h-6.161c-.571-5.287-1.061-10.615-1.673-15.9-1.264,5.287-2.57,10.615-3.834,15.9h-4.2c-1.346-5.287-2.651-10.615-4.039-15.943-.53,5.287-1.06,10.615-1.591,15.943H125.9Q127.369,21.107,128.838,9.467Zm28.232,0h7.874c.938,4.262,1.836,8.566,2.652,12.869.775-4.3,1.754-8.606,2.774-12.869h8.037q1.592,11.619,3.1,23.2h-6.161c-.571-5.287-1.1-10.615-1.673-15.9-1.264,5.287-2.529,10.615-3.834,15.9h-4.2c-1.346-5.328-2.692-10.615-4.039-15.943-.53,5.328-1.06,10.615-1.591,15.943h-5.915Q155.622,21.107,157.07,9.467Zm26.233.082c4.2-.082,8.445,0,12.647-.041v4.959c-2.122.041-4.243,0-6.365,0V18.73h5.508v4.8h-5.508v4.262h6.406v4.959H183.343C183.3,25,183.384,17.3,183.3,9.549Zm14.442-.082c2.652,0,5.263-.041,7.915,0a10.461,10.461,0,0,1,6.976,2.459,6.321,6.321,0,0,1,1.591,6.312,6.558,6.558,0,0,1-3.468,3.975c1.632,3.484,3.3,6.967,4.978,10.451h-6.569c-1.713-3.566-3.386-7.131-5.14-10.656-.041,3.565,0,7.131,0,10.656h-6.242C197.745,24.959,197.745,17.213,197.745,9.467Zm6.242,4.467v5.533a6.108,6.108,0,0,0,3.305-.82c1.1-.82.979-2.5.285-3.566C206.72,14.057,205.211,14.057,203.987,13.934Zm28.232-4.426h12.606v4.959h-6.4V18.73h5.508v4.8H238.42v4.262h6.446v4.959H232.219C232.178,24.959,232.219,17.213,232.219,9.508Z" fill-rule="evenodd"/>
  </g>
</svg>
